/* XPM */
static char * hero_xpm[] = {
"48 50 494 2",
"  	c None",
". 	c #6F3E46",
"+ 	c #734046",
"@ 	c #683C45",
"# 	c #D1665A",
"$ 	c #EA7160",
"% 	c #E87060",
"& 	c #954C4C",
"* 	c #312D3F",
"= 	c #433040",
"- 	c #984947",
"; 	c #E97160",
"> 	c #E46E5F",
", 	c #AF554F",
"' 	c #6D3A42",
") 	c #A04B48",
"! 	c #E06C5D",
"~ 	c #E66F5F",
"{ 	c #BF5A50",
"] 	c #633842",
"^ 	c #8F4444",
"/ 	c #DF6B5C",
"( 	c #B6554C",
"_ 	c #483240",
": 	c #643841",
"< 	c #AF534C",
"[ 	c #E36D5E",
"} 	c #CB6054",
"| 	c #7B3F44",
"1 	c #783D43",
"2 	c #D76658",
"3 	c #E77060",
"4 	c #A74E48",
"5 	c #392F40",
"6 	c #D56558",
"7 	c #E56E5F",
"8 	c #A64D48",
"9 	c #463140",
"0 	c #854244",
"a 	c #B15148",
"b 	c #DA685A",
"c 	c #E87C71",
"d 	c #E88E8A",
"e 	c #E88D89",
"f 	c #E88984",
"g 	c #E86F5E",
"h 	c #E46E5E",
"i 	c #BA564C",
"j 	c #A64D47",
"k 	c #523441",
"l 	c #603742",
"m 	c #B25148",
"n 	c #B05048",
"o 	c #D46557",
"p 	c #D87269",
"q 	c #E1B5BC",
"r 	c #D5C3CF",
"s 	c #D8BFCA",
"t 	c #E19494",
"u 	c #D56353",
"v 	c #D66658",
"w 	c #BE584E",
"x 	c #934645",
"y 	c #54292E",
"z 	c #AF4F48",
"A 	c #AF4F47",
"B 	c #AF534E",
"C 	c #BEAAC0",
"D 	c #D6C4D0",
"E 	c #AE4233",
"F 	c #AF493F",
"G 	c #BA797B",
"H 	c #D8D4E6",
"I 	c #B0717C",
"J 	c #8F413D",
"K 	c #4C1E1A",
"L 	c #B15149",
"M 	c #B05A59",
"N 	c #B8AECA",
"O 	c #B76B6A",
"P 	c #B04F47",
"Q 	c #B25853",
"R 	c #BA98AA",
"S 	c #B38799",
"T 	c #B05049",
"U 	c #8D3F38",
"V 	c #461C1A",
"W 	c #AA4E48",
"X 	c #B0514A",
"Y 	c #B16970",
"Z 	c #B16A71",
"` 	c #B1686E",
" .	c #B7ADC9",
"..	c #B7AECC",
"+.	c #B16A70",
"@.	c #B48EA2",
"#.	c #B8B9D9",
"$.	c #B27A88",
"%.	c #B05B5A",
"&.	c #AE4F48",
"*.	c #833B37",
"=.	c #120E17",
"-.	c #7A3E44",
";.	c #B05652",
">.	c #B8B7D7",
",.	c #B8B8D8",
"'.	c #B8BADB",
").	c #B38595",
"!.	c #A54C47",
"~.	c #282331",
"{.	c #000000",
"].	c #000112",
"^.	c #593541",
"/.	c #A04A46",
"(.	c #B15652",
"_.	c #B8B7D6",
":.	c #B7B7D8",
"<.	c #B7B7D7",
"[.	c #B8BADA",
"}.	c #B38596",
"|.	c #763D43",
"1.	c #2B2131",
"2.	c #492B14",
"3.	c #B9815F",
"4.	c #BD8563",
"5.	c #5A4247",
"6.	c #533441",
"7.	c #A44D49",
"8.	c #B07987",
"9.	c #B5B6D6",
"0.	c #D2D2E9",
"a.	c #E1E1F3",
"b.	c #E0E0F2",
"c.	c #B7B7D6",
"d.	c #B39FB8",
"e.	c #AF5856",
"f.	c #703C43",
"g.	c #4A3742",
"h.	c #976B58",
"i.	c #CA8E68",
"j.	c #5C3E2B",
"k.	c #C88C67",
"l.	c #CB8F6B",
"m.	c #664B4A",
"n.	c #6C4F4C",
"o.	c #563D45",
"p.	c #513A45",
"q.	c #483746",
"r.	c #B3B1BF",
"s.	c #D9D8E8",
"t.	c #E8E8F8",
"u.	c #E9E9F9",
"v.	c #DEDEEE",
"w.	c #D5D4E4",
"x.	c #534857",
"y.	c #513E4A",
"z.	c #503742",
"A.	c #6A4C4C",
"B.	c #684C4A",
"C.	c #9F715B",
"D.	c #DB9A71",
"E.	c #5F402E",
"F.	c #C98D68",
"G.	c #CA8F6A",
"H.	c #263134",
"I.	c #876554",
"J.	c #785751",
"K.	c #71514E",
"L.	c #674A49",
"M.	c #50353A",
"N.	c #584147",
"O.	c #C2BECB",
"P.	c #BDBDCC",
"Q.	c #C2C0CE",
"R.	c #8D838C",
"S.	c #4E3236",
"T.	c #593F43",
"U.	c #71524E",
"V.	c #6E4F4D",
"W.	c #99705D",
"X.	c #3B3938",
"Y.	c #926A53",
"Z.	c #DD9B72",
"`.	c #5F412E",
" +	c #865D43",
".+	c #815B43",
"++	c #2A3235",
"@+	c #B38666",
"#+	c #BE8C6C",
"$+	c #806B7A",
"%+	c #988BAA",
"&+	c #62535C",
"*+	c #664B40",
"=+	c #B18162",
"-+	c #B08062",
";+	c #946C54",
">+	c #4C3B38",
",+	c #8E819D",
"'+	c #91829D",
")+	c #6C4D4A",
"!+	c #A27760",
"~+	c #D29B75",
"{+	c #443E3A",
"]+	c #614A3D",
"^+	c #8B6146",
"/+	c #2D3234",
"(+	c #B18565",
"_+	c #D8A078",
":+	c #C28F6D",
"<+	c #8B798E",
"[+	c #ADA5CD",
"}+	c #575463",
"|+	c #695447",
"1+	c #DBA37C",
"2+	c #D9A27B",
"3+	c #DAA27B",
"4+	c #B38668",
"5+	c #262D2C",
"6+	c #9F98BC",
"7+	c #A39ABD",
"8+	c #9C725B",
"9+	c #D59E77",
"0+	c #443D3A",
"a+	c #323333",
"b+	c #AF8160",
"c+	c #D89F77",
"d+	c #DCBEB5",
"e+	c #E8E9FA",
"f+	c #63646B",
"g+	c #6B594D",
"h+	c #F9D0B8",
"i+	c #F7CFB6",
"j+	c #F7CFB7",
"k+	c #C8A793",
"l+	c #D5D5E5",
"m+	c #E4DDE8",
"n+	c #D69D74",
"o+	c #D59E76",
"p+	c #2A1E15",
"q+	c #050505",
"r+	c #946D51",
"s+	c #D39C75",
"t+	c #D9A178",
"u+	c #E1BBAB",
"v+	c #F0E2E6",
"w+	c #B0998F",
"x+	c #B29583",
"y+	c #F9D1B9",
"z+	c #F8D0B8",
"A+	c #DCB9A3",
"B+	c #9C8271",
"C+	c #E4D4D6",
"D+	c #EBD7D7",
"E+	c #D89F75",
"F+	c #DAA279",
"G+	c #B48563",
"H+	c #2C1E14",
"I+	c #8C6A54",
"J+	c #9F785D",
"K+	c #DEA883",
"L+	c #F2C6AB",
"M+	c #FAD1B9",
"N+	c #F8D0B9",
"O+	c #F8D1B9",
"P+	c #FAD2BA",
"Q+	c #F8D0B7",
"R+	c #E4B290",
"S+	c #C2906D",
"T+	c #8F6D56",
"U+	c #191616",
"V+	c #70534A",
"W+	c #AB7D64",
"X+	c #DBA57F",
"Y+	c #F3C9B0",
"Z+	c #E9BA9C",
"`+	c #DFAC89",
" @	c #E2AF8E",
".@	c #CC9773",
"+@	c #7E5C52",
"@@	c #44332F",
"#@	c #121515",
"$@	c #2B2416",
"%@	c #BA8D1D",
"&@	c #826048",
"*@	c #B68665",
"=@	c #D8A27B",
"-@	c #F3C8AE",
";@	c #F5CCB3",
">@	c #F4CAB0",
",@	c #E4B292",
"'@	c #8A664B",
")@	c #A37A39",
"!@	c #82630F",
"~@	c #0E1517",
"{@	c #151919",
"]@	c #313838",
"^@	c #444640",
"/@	c #C59605",
"(@	c #CA9A00",
"_@	c #96713A",
":@	c #C09B95",
"<@	c #B08363",
"[@	c #C49A7E",
"}@	c #E0B89F",
"|@	c #DFB79F",
"1@	c #D8B097",
"2@	c #AF815F",
"3@	c #C49B8E",
"4@	c #856760",
"5@	c #C79802",
"6@	c #876C33",
"7@	c #373F40",
"8@	c #202525",
"9@	c #6B3D3D",
"0@	c #2F3838",
"a@	c #384040",
"b@	c #43453F",
"c@	c #C99900",
"d@	c #B56B2A",
"e@	c #B4A4C2",
"f@	c #8C87A0",
"g@	c #483C30",
"h@	c #6F5644",
"i@	c #6F5746",
"j@	c #654F3D",
"k@	c #616071",
"l@	c #ADA7C6",
"m@	c #AB616B",
"n@	c #C37228",
"o@	c #876C32",
"p@	c #363E3E",
"q@	c #4B3636",
"r@	c #804C49",
"s@	c #784A47",
"t@	c #3F4442",
"u@	c #C49507",
"v@	c #C4821E",
"w@	c #C13C2F",
"x@	c #BAA2BF",
"y@	c #B6AECE",
"z@	c #ACA5C3",
"A@	c #757083",
"B@	c #3E3E41",
"C@	c #A9A2BF",
"D@	c #B0A9C7",
"E@	c #B8B0D0",
"F@	c #BF5965",
"G@	c #C15133",
"H@	c #C89800",
"I@	c #866B32",
"J@	c #3A4140",
"K@	c #604845",
"L@	c #723538",
"M@	c #E7BFAA",
"N@	c #F1C7AE",
"O@	c #B68867",
"P@	c #4A4844",
"Q@	c #3D413F",
"R@	c #895328",
"S@	c #A24B2E",
"T@	c #C13738",
"U@	c #C0474D",
"V@	c #B8AECD",
"W@	c #B9B1D1",
"X@	c #7D7A8E",
"Y@	c #414649",
"Z@	c #B6AECD",
"`@	c #B8B1D1",
" #	c #BD7A8F",
".#	c #C03939",
"+#	c #B93D36",
"@#	c #8B5426",
"##	c #624838",
"$#	c #3A4141",
"%#	c #826754",
"&#	c #E3B293",
"*#	c #F7CFB8",
"=#	c #976B62",
"-#	c #EAC3AC",
";#	c #E7B696",
">#	c #987A66",
",#	c #2D3131",
"'#	c #6B3E1A",
")#	c #883E2C",
"!#	c #AA3B3C",
"~#	c #BC4145",
"{#	c #41474A",
"]#	c #B8B1D2",
"^#	c #BD788C",
"/#	c #AD3A39",
"(#	c #A23C38",
"_#	c #6D3F1B",
":#	c #4C372A",
"<#	c #3E3C39",
"[#	c #E4B494",
"}#	c #ECBFA3",
"|#	c #FBD3BB",
"1#	c #986B62",
"2#	c #B58D7E",
"3#	c #E3BCA7",
"4#	c #916F64",
"5#	c #00030C",
"6#	c #284A62",
"7#	c #492220",
"8#	c #764141",
"9#	c #B84246",
"0#	c #BAAFCF",
"a#	c #BBB3D3",
"b#	c #7E7B8F",
"c#	c #B7AFCF",
"d#	c #B9B3D3",
"e#	c #BF798D",
"f#	c #873F3E",
"g#	c #6D3B3A",
"h#	c #0F3143",
"i#	c #1A3345",
"j#	c #30211B",
"k#	c #C39B8B",
"l#	c #FCD4BB",
"m#	c #D2AB98",
"n#	c #95675F",
"o#	c #061018",
"p#	c #3E6585",
"q#	c #374E67",
"r#	c #311B1E",
"s#	c #4E1E24",
"t#	c #4F4C5C",
"u#	c #504D5D",
"v#	c #34343D",
"w#	c #191C1E",
"x#	c #4E4C5B",
"y#	c #4F4D5D",
"z#	c #52343F",
"A#	c #391D21",
"B#	c #33303D",
"C#	c #3D6584",
"D#	c #264056",
"E#	c #060F16",
"F#	c #3E617E",
"G#	c #3E627F",
"H#	c #3E617D",
"I#	c #3F6685",
"J#	c #3F6686",
"K#	c #3F6787",
"L#	c #3A5162",
"M#	c #374142",
"N#	c #3F6481",
"O#	c #253D50",
"P#	c #040606",
"Q#	c #303E3D",
"R#	c #313F3E",
"S#	c #313E3C",
"T#	c #3E6481",
"U#	c #416989",
"V#	c #3B6180",
"W#	c #2C3D4D",
"X#	c #2A2F33",
"Y#	c #335470",
"Z#	c #41698A",
"`#	c #344850",
" $	c #32403F",
".$	c #1C2524",
"+$	c #1E0606",
"@$	c #9C3A3A",
"#$	c #9E3B3B",
"$$	c #9F3B3B",
"%$	c #4B4052",
"&$	c #243D55",
"*$	c #365752",
"=$	c #5D9265",
"-$	c #456E4F",
";$	c #233C55",
">$	c #1F3F56",
",$	c #933C40",
"'$	c #A03C3C",
")$	c #642222",
"!$	c #6BA674",
"~$	c #2A1E13",
"{$	c #BB3636",
"]$	c #BD3737",
"^$	c #BF3737",
"/$	c #54281D",
"($	c #5C9064",
"_$	c #2F573A",
":$	c #AF3332",
"<$	c #792623",
"[$	c #5E9366",
"}$	c #36422C",
"|$	c #343D29",
"1$	c #333B27",
"2$	c #3C5237",
"3$	c #5D9365",
"4$	c #5F9467",
"5$	c #5C9164",
"                                                                                                ",
"                                                                                                ",
"                                                                                                ",
"                                                                                                ",
"                                                                                                ",
"                                                                                                ",
"                                                                                                ",
"                                                                                                ",
"                                    . + + + + + + + + +                                         ",
"                                  @ # $ $ $ $ $ $ $ $ % & *                                     ",
"                              = - # ; % % % % % % % % % > , '                                   ",
"                            = ) ! % % % % % % % % % % % % ~ { ]                                 ",
"                            ^ / % % % % % % % % % % % % % % % ( _                               ",
"                          : < [ % % % % % % % % % % % % % % % } |                               ",
"                          1 2 % % % % % % % % % % % % % % % % 3 4 5                             ",
"                          1 6 % % % % % % % % % % % % % % % % 7 8 5                             ",
"                        9 0 a b % % % % % c d e f g % % % % h i j k                             ",
"                        l m n n o 6 6 6 p q r r s t u 6 6 v w n n x                             ",
"                        y a n n z A A B C D E F G H I A A A n n n J                             ",
"                        K L n n n n n M N O P n Q R S T n n n n n U                             ",
"                        V W n X Y Z `  ...` Z Z +.@.#.$.Z Z %.n &.*.                            ",
"                        =.-.m ;.>.#.#.,.,.#.#.#.#.#.,.#.#.'.).P !.~.                            ",
"                      {.].^./.(._.,.:.<.<.<.<.<.<.<.<.<.,.[.}.P |.1.{.2.                        ",
"                    {.3.4.5.6.7.8.9.0.a.a.a.a.a.a.a.a.b.c.d.e.f.g.h.i.j.                        ",
"                    {.k.l.m.n.o.p.q.r.s.t.t.t.t.t.u.v.w.x.y.z.A.B.C.D.E.                        ",
"                    {.F.G.H.I.J.K.L.M.N.O.P.P.P.P.Q.R.S.T.U.V.W.X.Y.Z.`.                        ",
"                       +.+++@+#+U.$+%+&+*+=+-+-+-+;+>+,+'+)+!+~+{+]+^+                          ",
"                          /+(+_+:+<+[+}+|+1+2+2+3+4+5+6+7+8+9+9+0+a+                            ",
"                          {.b+_+c+d+e+f+g+h+i+i+j+k+{.l+m+n+_+o+p+q+                            ",
"                            r+s+t+u+v+w+x+y+z+z+z+A+B+C+D+E+F+G+H+                              ",
"                              I+J+K+L+M+M+z+N+O+z+y+P+Q+R+S+T+                                  ",
"                              U+V+W+X+Y+z+O+Z+`+j+z+z+ @.@+@@@                                  ",
"                            #@$@%@&@*@=@-@;@Q+j+j+>@,@.@'@)@!@~@                                ",
"                          {@]@^@/@(@_@:@<@[@}@|@1@2@3@4@5@(@6@7@8@                              ",
"                        9@0@a@b@/@c@d@e@f@g@h@i@j@k@l@m@n@(@o@7@p@q@                            ",
"                      r@s@t@a@b@u@v@w@x@y@z@A@B@C@D@E@F@G@H@I@7@J@K@r@                          ",
"                    L@M@N@O@P@Q@R@S@T@U@V@W@X@Y@Z@`@ #.#+#@###$#%#&#*#=#                        ",
"                    L@-#;@;#>#,#'#)#!#~#V@W@X@{#Z@]#^#/#(#_#:#<#[#}#|#1#                        ",
"                      2#z+3#4#5#6#7#8#9#0#a#b#{#c#d#e#f#g#h#i#j#k#l#m#                          ",
"                        =#n#  o#p#q#r#s#t#u#v#w#x#y#z#A#B#C#D#    1#                            ",
"                              E#F#G#H#I#J#K#L#M#I#J#J#G#F#N#O#                                  ",
"                              P#Q#R#S#T#U#V#W#X#Y#U#Z#`#R# $.$                                  ",
"                              +$@$#$$$%$&$*$=$=$-$;$>$,$#$'$)$                                  ",
"                            !$~${$]$^$/$=$=$=$=$($=$_$:$]$^$<$!$                                ",
"                            !$[$}$|$1$=$=$=$=$=$=$=$=$2$|$1$=$!$                                ",
"                            !$=$=$=$3$=$=$=$=$=$=$=$=$3$3$=$=$!$                                ",
"                            !$!$=$=$=$4$=$=$=$=$=$=$5$=$=$=$=$!$                                ",
"                              !$!$!$=$=$=$=$=$=$=$=$=$=$!$!$!$                                  ",
"                                  !$!$!$!$=$=$=$=$!$!$!$!$                                      ",
"                                          !$!$!$!$                                              "};
