/* XPM */
static char * test_left_xpm[] = {
"50 50 18 1",
" 	c None",
".	c #403040",
"+	c #B05048",
"@	c #E87060",
"#	c #B8B0D0",
"$	c #406888",
"%	c #E8E8F8",
"&	c #882840",
"*	c #503018",
"=	c #885028",
"-	c #384040",
";	c #784040",
">	c #9890B0",
",	c #000000",
"'	c #D8A078",
")	c #F8D0B8",
"!	c #C89800",
"~	c #C03838",
"                                                  ",
"                                                  ",
"                   ..............                 ",
"                  ..+@@@@@@@@@@@@.                ",
"                 ..+@@@@@@@@@@@@@@..              ",
"                ..+@@@@@@@@@@@@@@@@+.             ",
"               ..+@@@@@@@@@@@@@@@@@++.            ",
"               .+@@@@@@@@@@@@@@@@@@@++.           ",
"              ..+@@@@@@@@@@@@@@@@@@@@+.           ",
"              .++@@@@@@@@@@@@@@@@@@@@++.          ",
"              .++@@@@@@@@@@@@@@@@@@@@+++.         ",
"             ..##@@@@@@@@@@@@@@@@@@@@+++.         ",
"            ..$++%@@@@@@@@@@@@@@@@@@@+++.         ",
"           ..%%++%+@@@@@@@@@@@@@@@@@@+++.         ",
"          .%%%%++%++@@@@@@@@@@@@@@@@++++.         ",
"         .%%%%%++%+++@@@@@@@@@@@@@@+++++.         ",
"         .%%%%%##+++++++++++++++++++++++.         ",
"         .%%%%%+++++++++++++++++++++++++.         ",
"         .%%%%%&++++++++++++++++++++++++.         ",
"          .#%%%%&++++++++++++++++++++++..         ",
"           .#####&++++++++++++++++++++.**         ",
"            .#####&++++++++++++++++++.=**         ",
"             ....--..................==**         ",
"             ;;;;-->;;;******==========*          ",
"              ;;;,,>>;;***=**=========**          ",
"              ;;',,>>;;**=''*========**           ",
"              ;'',,%%''**''''*======*..           ",
"              ;'',,%)''*'''''**====**.            ",
"              '))))))))''''''**====**             ",
"              ')))))))'''''''*====**              ",
"               ;'))))'''*'''*=====*               ",
"                ;;))'''******==,,,*               ",
"                 ;;;;;;;*******!!*,               ",
"                  ;;;;;;;*****!!!!*               ",
"                    &####!!=!!!!!!!*              ",
"                    &#----!==!!!!!!**             ",
"                    ~,------,!!!!!==,             ",
"                    ~,------,!!!!===,             ",
"                   ,-))))---,=====!!,             ",
"                   ,-))))----,==!!!!,             ",
"                   ,-''''----,!!!!==,             ",
"                   ,,-''-----,!!!==,              ",
"                    -,$$$$$$$,!!!=,               ",
"                    -,,$$$$$$,,,,,                ",
"                    ,~~~~~~&&,                    ",
"                    ,~~~~~~&&,                    ",
"                     ,,,,,,,,                     ",
"                                                  ",
"                                                  ",
"                                                  "};
