/* XPM */
static char * hero_xpm[] = {
"48 50 444 2",
"  	c None",
". 	c #6F3E46",
"+ 	c #734046",
"@ 	c #433040",
"# 	c #683C45",
"$ 	c #D1665A",
"% 	c #EA7160",
"& 	c #E87060",
"* 	c #954C4C",
"= 	c #312D3F",
"- 	c #984947",
"; 	c #E97160",
"> 	c #E46E5F",
", 	c #AF554F",
"' 	c #A04B48",
") 	c #E06C5D",
"! 	c #E66F5F",
"~ 	c #BF5A50",
"{ 	c #483240",
"] 	c #8F4444",
"^ 	c #DF6B5C",
"/ 	c #B6554C",
"( 	c #643841",
"_ 	c #AF534C",
": 	c #E36D5E",
"< 	c #CB6054",
"[ 	c #7B3F44",
"} 	c #392F40",
"| 	c #B15148",
"1 	c #D76658",
"2 	c #E77060",
"3 	c #A74E48",
"4 	c #D56558",
"5 	c #E56E5F",
"6 	c #A64D48",
"7 	c #463140",
"8 	c #DA685A",
"9 	c #E87C71",
"0 	c #E88E8A",
"a 	c #E88D89",
"b 	c #E88984",
"c 	c #E86F5E",
"d 	c #E46E5E",
"e 	c #BA564C",
"f 	c #A64D47",
"g 	c #523441",
"h 	c #603742",
"i 	c #B25148",
"j 	c #B05048",
"k 	c #D46557",
"l 	c #D87269",
"m 	c #E1B5BC",
"n 	c #D5C3CF",
"o 	c #D8BFCA",
"p 	c #E19494",
"q 	c #D56353",
"r 	c #D66658",
"s 	c #BE584E",
"t 	c #54292E",
"u 	c #AF4F48",
"v 	c #AF4F47",
"w 	c #AF534E",
"x 	c #BEAAC0",
"y 	c #D6C4D0",
"z 	c #AE4233",
"A 	c #AF493F",
"B 	c #BA797B",
"C 	c #D8D4E6",
"D 	c #B0717C",
"E 	c #4C1E1A",
"F 	c #B15149",
"G 	c #B05A59",
"H 	c #B8AECA",
"I 	c #B76B6A",
"J 	c #B04F47",
"K 	c #B25853",
"L 	c #BA98AA",
"M 	c #B38799",
"N 	c #B05049",
"O 	c #461C1A",
"P 	c #AA4E48",
"Q 	c #B0514A",
"R 	c #B16970",
"S 	c #B16A71",
"T 	c #B1686E",
"U 	c #B7ADC9",
"V 	c #B7AECC",
"W 	c #B16A70",
"X 	c #B48EA2",
"Y 	c #B8B9D9",
"Z 	c #B27A88",
"` 	c #B05B5A",
" .	c #AE4F48",
"..	c #120E17",
"+.	c #7A3E44",
"@.	c #B05652",
"#.	c #B8B7D7",
"$.	c #B8B8D8",
"%.	c #B8BADB",
"&.	c #B38595",
"*.	c #A54C47",
"=.	c #282331",
"-.	c #4F2F18",
";.	c #000000",
">.	c #000112",
",.	c #593541",
"'.	c #A04A46",
").	c #B15652",
"!.	c #B8B7D6",
"~.	c #B7B7D8",
"{.	c #B7B7D7",
"].	c #B8BADA",
"^.	c #B38596",
"/.	c #763D43",
"(.	c #2B2131",
"_.	c #B9815F",
":.	c #BD8563",
"<.	c #5A4247",
"[.	c #533441",
"}.	c #A44D49",
"|.	c #B07987",
"1.	c #B5B6D6",
"2.	c #D2D2E9",
"3.	c #E1E1F3",
"4.	c #E0E0F2",
"5.	c #B7B7D6",
"6.	c #B39FB8",
"7.	c #AF5856",
"8.	c #703C43",
"9.	c #4A3742",
"0.	c #C88C67",
"a.	c #CB8F6B",
"b.	c #664B4A",
"c.	c #6C4F4C",
"d.	c #563D45",
"e.	c #513A45",
"f.	c #483746",
"g.	c #B3B1BF",
"h.	c #D9D8E8",
"i.	c #E8E8F8",
"j.	c #E9E9F9",
"k.	c #DEDEEE",
"l.	c #D5D4E4",
"m.	c #534857",
"n.	c #513E4A",
"o.	c #503742",
"p.	c #6A4C4C",
"q.	c #684C4A",
"r.	c #DB9A71",
"s.	c #C98D68",
"t.	c #CA8F6A",
"u.	c #263134",
"v.	c #876554",
"w.	c #785751",
"x.	c #71514E",
"y.	c #674A49",
"z.	c #50353A",
"A.	c #584147",
"B.	c #C2BECB",
"C.	c #BDBDCC",
"D.	c #C2C0CE",
"E.	c #8D838C",
"F.	c #4E3236",
"G.	c #593F43",
"H.	c #71524E",
"I.	c #6E4F4D",
"J.	c #99705D",
"K.	c #2A3235",
"L.	c #DD9B72",
"M.	c #865D43",
"N.	c #815B43",
"O.	c #B38666",
"P.	c #BE8C6C",
"Q.	c #988BAA",
"R.	c #4C3B38",
"S.	c #946C54",
"T.	c #B18162",
"U.	c #B08062",
"V.	c #8E819D",
"W.	c #91829D",
"X.	c #6C4D4A",
"Y.	c #A27760",
"Z.	c #2D3234",
"`.	c #B18565",
" +	c #D8A078",
".+	c #C28F6D",
"++	c #ADA5CD",
"@+	c #262D2C",
"#+	c #B38668",
"$+	c #DBA37C",
"%+	c #D9A27B",
"&+	c #DAA27B",
"*+	c #9F98BC",
"=+	c #A39ABD",
"-+	c #AF8160",
";+	c #D89F77",
">+	c #E4DDE8",
",+	c #D5D5E5",
"'+	c #C8A793",
")+	c #F9D0B8",
"!+	c #F7CFB6",
"~+	c #F7CFB7",
"{+	c #D69D74",
"]+	c #946D51",
"^+	c #D39C75",
"/+	c #D9A178",
"(+	c #EBD7D7",
"_+	c #F0E2E6",
":+	c #B0998F",
"<+	c #DCB9A3",
"[+	c #F9D1B9",
"}+	c #F8D0B8",
"|+	c #9C8271",
"1+	c #E4D4D6",
"2+	c #D89F75",
"3+	c #8C6A54",
"4+	c #C2906D",
"5+	c #E4B290",
"6+	c #F2C6AB",
"7+	c #FAD1B9",
"8+	c #F8D0B9",
"9+	c #F8D1B9",
"0+	c #FAD2BA",
"a+	c #F8D0B7",
"b+	c #8F6D56",
"c+	c #191616",
"d+	c #70534A",
"e+	c #AB7D64",
"f+	c #DBA57F",
"g+	c #F3C9B0",
"h+	c #E9BA9C",
"i+	c #DFAC89",
"j+	c #E2AF8E",
"k+	c #CC9773",
"l+	c #7E5C52",
"m+	c #44332F",
"n+	c #121515",
"o+	c #2B2416",
"p+	c #BA8D1D",
"q+	c #826048",
"r+	c #B68665",
"s+	c #D8A27B",
"t+	c #F3C8AE",
"u+	c #F5CCB3",
"v+	c #F4CAB0",
"w+	c #E4B292",
"x+	c #8A664B",
"y+	c #A37A39",
"z+	c #82630F",
"A+	c #0E1517",
"B+	c #151919",
"C+	c #313838",
"D+	c #444640",
"E+	c #C59605",
"F+	c #CA9A00",
"G+	c #96713A",
"H+	c #C09B95",
"I+	c #B08363",
"J+	c #C49A7E",
"K+	c #E0B89F",
"L+	c #DFB79F",
"M+	c #D8B097",
"N+	c #AF815F",
"O+	c #C49B8E",
"P+	c #856760",
"Q+	c #C79802",
"R+	c #876C33",
"S+	c #373F40",
"T+	c #202525",
"U+	c #6B3D3D",
"V+	c #2F3838",
"W+	c #384040",
"X+	c #43453F",
"Y+	c #C99900",
"Z+	c #B56B2A",
"`+	c #B4A4C2",
" @	c #8C87A0",
".@	c #483C30",
"+@	c #6F5644",
"@@	c #6F5746",
"#@	c #654F3D",
"$@	c #616071",
"%@	c #ADA7C6",
"&@	c #AB616B",
"*@	c #C37228",
"=@	c #876C32",
"-@	c #363E3E",
";@	c #4B3636",
">@	c #804C49",
",@	c #784A47",
"'@	c #3F4442",
")@	c #C49507",
"!@	c #C4821E",
"~@	c #C13C2F",
"{@	c #BAA2BF",
"]@	c #B6AECE",
"^@	c #ACA5C3",
"/@	c #757083",
"(@	c #3E3E41",
"_@	c #A9A2BF",
":@	c #B0A9C7",
"<@	c #B8B0D0",
"[@	c #BF5965",
"}@	c #C15133",
"|@	c #C89800",
"1@	c #866B32",
"2@	c #3A4140",
"3@	c #604845",
"4@	c #723538",
"5@	c #E7BFAA",
"6@	c #F1C7AE",
"7@	c #B68867",
"8@	c #4A4844",
"9@	c #3D413F",
"0@	c #895328",
"a@	c #A24B2E",
"b@	c #C13738",
"c@	c #C0474D",
"d@	c #B8AECD",
"e@	c #B9B1D1",
"f@	c #7D7A8E",
"g@	c #414649",
"h@	c #B6AECD",
"i@	c #B8B1D1",
"j@	c #BD7A8F",
"k@	c #C03939",
"l@	c #B93D36",
"m@	c #8B5426",
"n@	c #624838",
"o@	c #3A4141",
"p@	c #826754",
"q@	c #E3B293",
"r@	c #F7CFB8",
"s@	c #976B62",
"t@	c #EAC3AC",
"u@	c #E7B696",
"v@	c #987A66",
"w@	c #2D3131",
"x@	c #6B3E1A",
"y@	c #883E2C",
"z@	c #AA3B3C",
"A@	c #BC4145",
"B@	c #41474A",
"C@	c #B8B1D2",
"D@	c #BD788C",
"E@	c #AD3A39",
"F@	c #A23C38",
"G@	c #6D3F1B",
"H@	c #4C372A",
"I@	c #3E3C39",
"J@	c #E4B494",
"K@	c #ECBFA3",
"L@	c #FBD3BB",
"M@	c #986B62",
"N@	c #B58D7E",
"O@	c #E3BCA7",
"P@	c #916F64",
"Q@	c #00030C",
"R@	c #284A62",
"S@	c #492220",
"T@	c #764141",
"U@	c #B84246",
"V@	c #BAAFCF",
"W@	c #BBB3D3",
"X@	c #7E7B8F",
"Y@	c #B7AFCF",
"Z@	c #B9B3D3",
"`@	c #BF798D",
" #	c #873F3E",
".#	c #6D3B3A",
"+#	c #0F3143",
"@#	c #1A3345",
"##	c #30211B",
"$#	c #C39B8B",
"%#	c #FCD4BB",
"&#	c #D2AB98",
"*#	c #95675F",
"=#	c #061018",
"-#	c #3E6585",
";#	c #374E67",
">#	c #311B1E",
",#	c #4E1E24",
"'#	c #4F4C5C",
")#	c #504D5D",
"!#	c #34343D",
"~#	c #191C1E",
"{#	c #4E4C5B",
"]#	c #4F4D5D",
"^#	c #52343F",
"/#	c #391D21",
"(#	c #33303D",
"_#	c #3D6584",
":#	c #060F16",
"<#	c #3E617E",
"[#	c #3E627F",
"}#	c #3E617D",
"|#	c #3F6685",
"1#	c #3F6686",
"2#	c #3F6787",
"3#	c #3A5162",
"4#	c #374142",
"5#	c #3F6481",
"6#	c #040606",
"7#	c #303E3D",
"8#	c #313F3E",
"9#	c #313E3C",
"0#	c #3E6481",
"a#	c #416989",
"b#	c #3B6180",
"c#	c #2C3D4D",
"d#	c #2A2F33",
"e#	c #335470",
"f#	c #41698A",
"g#	c #344850",
"h#	c #32403F",
"i#	c #1E0606",
"j#	c #9C3A3A",
"k#	c #9E3B3B",
"l#	c #9F3B3B",
"m#	c #4B4052",
"n#	c #243D55",
"o#	c #365752",
"p#	c #5D9265",
"q#	c #456E4F",
"r#	c #233C55",
"s#	c #1F3F56",
"t#	c #933C40",
"u#	c #A03C3C",
"v#	c #6BA674",
"w#	c #2A1E13",
"x#	c #BB3636",
"y#	c #BD3737",
"z#	c #BF3737",
"A#	c #54281D",
"B#	c #5C9064",
"C#	c #2F573A",
"D#	c #AF3332",
"E#	c #5E9366",
"F#	c #36422C",
"G#	c #333B27",
"H#	c #3C5237",
"I#	c #5D9365",
"J#	c #5F9467",
"K#	c #5C9164",
"                                                                                                ",
"                                                                                                ",
"                                                                                                ",
"                                                                                                ",
"                                                                                                ",
"                                                                                                ",
"                                    . + + + + + + + + +                                         ",
"                                @ # $ % % % % % % % % & * =                                     ",
"                              @ - $ ; & & & & & & & & & > , @                                   ",
"                            @ ' ) & & & & & & & & & & & & ! ~ @                                 ",
"                          { ] ^ & & & & & & & & & & & & & & & / {                               ",
"                          ( _ : & & & & & & & & & & & & & & & < [                               ",
"                        } | 1 & & & & & & & & & & & & & & & & 2 3 }                             ",
"                        } | 4 & & & & & & & & & & & & & & & & 5 6 }                             ",
"                        7 | | 8 & & & & & 9 0 a b c & & & & d e f g                             ",
"                        h i j j k 4 4 4 l m n n o p q 4 4 r s j j h                             ",
"                        t | j j u v v w x y z A B C D v v v j j j t                             ",
"                        E F j j j j j G H I J j K L M N j j j j j E                             ",
"                        O P j Q R S T U V T S S W X Y Z S S ` j  .E                             ",
"                        ..+.i @.#.Y Y $.$.Y Y Y Y Y $.Y Y %.&.J *.=.                            ",
"                    -.;.>.,.'.).!.$.~.{.{.{.{.{.{.{.{.{.$.].^.J /.(.;.-.                        ",
"                    ;._.:.<.[.}.|.1.2.3.3.3.3.3.3.3.3.4.5.6.7.8.9._._.;.                        ",
"                    ;.0.a.b.c.d.e.f.g.h.i.i.i.i.i.j.k.l.m.n.o.p.q.r.r.;.                        ",
"                    ;.s.t.u.v.w.x.y.z.A.B.C.C.C.C.D.E.F.G.H.I.J.K.r.L.;.                        ",
"                      M.N.K.O.P.H.Q.Q.R.S.T.U.U.U.S.R.V.W.X.Y.O.K.M.M.                          ",
"                          Z.`. +.+++++@+#+$+%+%+&+#+@+*+=+.+ +O.K.                              ",
"                          ;.-+ +;+>+,+;.'+)+!+!+~+'+;.,+>+{+ +-+;.                              ",
"                            ]+^+/+(+_+:+<+[+}+}+}+<+|+1+(+2+^+]+                                ",
"                              3+4+5+6+7+7+}+8+9+}+[+0+a+5+4+b+                                  ",
"                              c+d+e+f+g+}+9+h+i+~+}+}+j+k+l+m+                                  ",
"                            n+o+p+q+r+s+t+u+a+~+~+v+w+k+x+y+z+A+                                ",
"                          B+C+D+E+F+G+H+I+J+K+L+M+N+O+P+Q+F+R+S+T+                              ",
"                        U+V+W+X+E+Y+Z+`+ @.@+@@@#@$@%@&@*@F+=@S+-@;@                            ",
"                      >@,@'@W+X+)@!@~@{@]@^@/@(@_@:@<@[@}@|@1@S+2@3@>@                          ",
"                    4@5@6@7@8@9@0@a@b@c@d@e@f@g@h@i@j@k@l@m@n@o@p@q@r@s@                        ",
"                    4@t@u+u@v@w@x@y@z@A@d@e@f@B@h@C@D@E@F@G@H@I@J@K@L@M@                        ",
"                      N@}+O@P@Q@R@S@T@U@V@W@X@B@Y@Z@`@ #.#+#@###$#%#&#                          ",
"                        s@*#  =#-#;#>#,#'#)#!#~#{#]#^#/#(#_#=#  M@M@                            ",
"                              :#<#[#}#|#1#2#3#4#|#1#1#[#<#5#=#                                  ",
"                              6#7#8#9#0#a#b#c#d#e#a#f#g#8#h#=#                                  ",
"                              i#j#k#l#m#n#o#p#p#q#r#s#t#k#u#=#                                  ",
"                            v#w#x#y#z#A#p#p#p#p#B#p#C#D#y#z#=#v#                                ",
"                            v#E#F#=#G#p#p#p#p#p#p#p#p#H#=#G#p#v#                                ",
"                            v#p#p#p#I#p#p#p#p#p#p#p#p#I#I#p#p#v#                                ",
"                            v#v#p#p#p#J#p#p#p#p#p#p#K#p#p#p#p#v#                                ",
"                              v#v#v#p#p#p#p#p#p#p#p#p#p#v#v#v#                                  ",
"                                  v#v#v#v#p#p#p#p#v#v#v#v#                                      ",
"                                          v#v#v#v#                                              ",
"                                                                                                ",
"                                                                                                "};
