/* XPM */
static char * test_back_xpm[] = {
"50 50 15 1",
" 	c None",
".	c #403040",
"+	c #E87060",
"@	c #B05048",
"#	c #384040",
"$	c #503018",
"%	c #000000",
"&	c #D8A078",
"*	c #885028",
"=	c #C89800",
"-	c #882840",
";	c #784040",
">	c #F8D0B8",
",	c #C03838",
"'	c #406888",
"                                                  ",
"                                                  ",
"                  ..............                  ",
"                 .++++++++++++++.                 ",
"               ..++++++++++++++++..               ",
"              .@@++++++++++++++++@@.              ",
"             .@@++++++++++++++++++@@.             ",
"            ..@++++++++++++++++++++@..            ",
"            .@++++++++++++++++++++++@.            ",
"            .@++++++++++++++++++++++@.            ",
"           .@@++++++++++++++++++++++@@.           ",
"          .@@@++++++++++++++++++++++@@@.          ",
"          .@@@++++++++++++++++++++++@@@.          ",
"          .@@@@++++++++++++++++++++@@@@.          ",
"          .@@@@@++++++++++++++++++@@@@@.          ",
"          .@@@@@@++++++++++++++++@@@@@@.          ",
"          .@@@@@@@@++++++++++++@@@@@@@@.          ",
"          .@@@@@@@@@@++++++++@@@@@@@@@@.          ",
"          .@@@@@@@@@@@@####@@@@@@@@@@@@.          ",
"         $..@@@@@@@@@@######@@@@@@@@@@..$         ",
"         %&&.@@@@@@@##########@@@@@@@.&&%         ",
"         %&&..@@@@@@##########@@@@@@..&&%         ",
"         %&&$$.@@@@@@@@@@@@@@@@@@@@.$$&&%         ",
"         %&&$**...@@@@@@@@@@@@@@...**$&&%         ",
"          %%$***$$.@@@@@@@@@@@@.$$***$%%          ",
"           %$$***$..............$***$$%           ",
"            %%$********************$%%            ",
"             %$$******************$$%             ",
"              %%$****************$%%              ",
"               %$$**************$$%               ",
"               #%%$************$%%#               ",
"              ###%%%**********%%%###              ",
"             %###%==$$$$$$$$$$==%###%             ",
"            %%###%===%======%===%###%%            ",
"           %#####-==%%======%%==-#####%           ",
"          %%####--=%%========%%=--####%%          ",
"         ;>>&#%%,,%%==========%%,,%%#&>>;         ",
"         ;>>&&;%,,%============%,,%;&&>>;         ",
"         ;>>>>;%--$$*========*$$--%;>>>>;         ",
"          ;>>; %--$$**======**$$--% ;>>;          ",
"           ;;  #''$$==******==$$''#  ;;           ",
"               #'''$==========$'''#               ",
"               %#'''%========%'''#%               ",
"               %##''%%======%%''##%               ",
"               %,,,,##########,,,,%               ",
"               %,,,,#        #,,,,%               ",
"                %%%%          %%%%                ",
"                                                  ",
"                                                  ",
"                                                  "};
