/* XPM */
static char * hero_back_xpm[] = {
"48 50 191 2",
"  	c None",
". 	c #3A2932",
"+ 	c #A65350",
"@ 	c #BE5E55",
"# 	c #9A4E4D",
"$ 	c #E36E5F",
"% 	c #E87060",
"& 	c #AD4F48",
"* 	c #CC6154",
"= 	c #E97060",
"- 	c #A54C47",
"; 	c #CD6154",
"> 	c #E97160",
", 	c #793E43",
"' 	c #CD6256",
") 	c #924545",
"! 	c #E16C5D",
"~ 	c #844144",
"{ 	c #AF4F48",
"] 	c #E06C5D",
"^ 	c #5F3741",
"/ 	c #B25148",
"( 	c #B15048",
"_ 	c #B05048",
": 	c #C55C51",
"< 	c #C25B50",
"[ 	c #E76F60",
"} 	c #AE4F47",
"| 	c #D06256",
"1 	c #D86759",
"2 	c #EA7160",
"3 	c #B35249",
"4 	c #C95E52",
"5 	c #AE5950",
"6 	c #9B564E",
"7 	c #4E2F1B",
"8 	c #503942",
"9 	c #874545",
"0 	c #AE5048",
"a 	c #954B45",
"b 	c #434140",
"c 	c #364040",
"d 	c #2E1F15",
"e 	c #D29C75",
"f 	c #B08266",
"g 	c #884043",
"h 	c #474141",
"i 	c #3D4040",
"j 	c #374040",
"k 	c #2D1F14",
"l 	c #D59E76",
"m 	c #B38465",
"n 	c #8A4343",
"o 	c #AF5048",
"p 	c #7A4743",
"q 	c #784743",
"r 	c #D79F77",
"s 	c #B58562",
"t 	c #673B19",
"u 	c #734531",
"v 	c #9F4A46",
"w 	c #5E4431",
"x 	c #573C29",
"y 	c #764522",
"z 	c #885028",
"A 	c #7A482B",
"B 	c #4D3021",
"C 	c #563438",
"D 	c #A44C47",
"E 	c #AE4F48",
"F 	c #2E1A0A",
"G 	c #4A2C16",
"H 	c #7B4824",
"I 	c #794723",
"J 	c #543633",
"K 	c #56383D",
"L 	c #57383D",
"M 	c #000000",
"N 	c #794724",
"O 	c #895128",
"P 	c #895028",
"Q 	c #895027",
"R 	c #3C220F",
"S 	c #774623",
"T 	c #1F1209",
"U 	c #533119",
"V 	c #333A3A",
"W 	c #0F0F0F",
"X 	c #3A210F",
"Y 	c #774522",
"Z 	c #363E3E",
"` 	c #384040",
" .	c #283133",
"..	c #664C00",
"+.	c #7F5F01",
"@.	c #754522",
"#.	c #764523",
"$.	c #744323",
"%.	c #1E2D32",
"&.	c #A37B00",
"*.	c #C99900",
"=.	c #9E760A",
"-.	c #6E500B",
";.	c #A87E0B",
">.	c #A77D0B",
",.	c #1F2424",
"'.	c #333B3B",
").	c #373F3F",
"!.	c #59333F",
"~.	c #B17C22",
"{.	c #C39500",
"].	c #574000",
"^.	c #836300",
"/.	c #CA9900",
"(.	c #C89800",
"_.	c #6E5B4F",
":.	c #6C5A4E",
"<.	c #4F4A45",
"[.	c #4D383B",
"}.	c #92273F",
"|.	c #AD7525",
"1.	c #715400",
"2.	c #C79800",
"3.	c #804D4A",
"4.	c #F7CFB7",
"5.	c #EFC1A5",
"6.	c #B08464",
"7.	c #593831",
"8.	c #541312",
"9.	c #C43A39",
"0.	c #791920",
"a.	c #7B5D00",
"b.	c #804D49",
"c.	c #F6CEB7",
"d.	c #F4CAB1",
"e.	c #F0C2A6",
"f.	c #93645A",
"g.	c #471218",
"h.	c #A22F3E",
"i.	c #6F2728",
"j.	c #876211",
"k.	c #AA791B",
"l.	c #AC8376",
"m.	c #F8D0B8",
"n.	c #C29A8A",
"o.	c #39111B",
"p.	c #882C45",
"q.	c #692F2E",
"r.	c #523118",
"s.	c #8B5526",
"t.	c #AB7A1B",
"u.	c #C79701",
"v.	c #C69602",
"w.	c #394751",
"x.	c #446888",
"y.	c #4A5061",
"z.	c #57391F",
"A.	c #C49503",
"B.	c #B68614",
"C.	c #966224",
"D.	c #976323",
"E.	c #2F3B42",
"F.	c #3F617D",
"G.	c #40698A",
"H.	c #4E5361",
"I.	c #A77F0A",
"J.	c #CA9A00",
"K.	c #0F1514",
"L.	c #33474E",
"M.	c #39617D",
"N.	c #396888",
"O.	c #2D2415",
"P.	c #A27A00",
"Q.	c #4D1414",
"R.	c #B43A39",
"S.	c #B33F46",
"T.	c #B1424C",
"U.	c #3D3B3B",
"V.	c #4A463A",
"W.	c #65573A",
"X.	c #64573A",
"Y.	c #6BA674",
"Z.	c #521313",
"`.	c #B23333",
" +	c #B13333",
".+	c #AF3333",
"++	c #443F3F",
"@+	c #5D9265",
"#+	c #5D9365",
"$+	c #5F9467",
"%+	c #5C9164",
"                                                                                                ",
"                                                                                                ",
"                                                                                                ",
"                                                                                                ",
"                                                                                                ",
"                                                                                                ",
"                                      . . . . . . . . . .                                       ",
"                                  . + @ @ @ @ @ @ @ @ @ @ + .                                   ",
"                                . # $ % % % % % % % % % % $ # .                                 ",
"                              . & * = % % % % % % % % % % = * & .                               ",
"                            . - ; > % % % % % % % % % % % % > ; - .                             ",
"                          . , ' % % % % % % % % % % % % % % % % ' , .                           ",
"                          . ) ! % % % % % % % % % % % % % % % % ! ) .                           ",
"                        . ~ { ] % % % % % % % % % % % % % % % % ] { ~ .                         ",
"                        ^ / { ! % % % % % % % % % % % % % % % % ! { / ^                         ",
"                        ^ ( _ : % % % % % % % % % % % % % % % % : _ ( ^                         ",
"                        ^ ( _ _ < % % % % % % % % % % % % % % < _ _ ( ^                         ",
"                        ^ ( _ _ _ : ! [ % % % % % % % % [ ! : _ _ _ ( ^                         ",
"                        ^ ( _ _ _ _ } | 1 > > 2 2 > > 1 | } _ _ _ _ ( ^                         ",
"                        ^ / _ _ _ _ _ { 3 4 5 6 6 5 4 3 { _ _ _ _ _ / ^                         ",
"                      7 8 9 _ _ _ _ _ _ 0 a b c c b a 0 _ _ _ _ _ _ 9 8 7                       ",
"                      d e f g { _ _ _ 0 h i j j j j i h 0 _ _ _ { g f e d                       ",
"                      k l m . n _ ( _ o p q q q q q q p o _ ( _ n . m l k                       ",
"                      k r s t u , , v _ ( ( ( ( ( ( ( ( _ v , , u t s r k                       ",
"                        w x y z A B C D E E E E E E E E D C B A z y x w                         ",
"                          F G H z I J K L L L L L L L L K J I z H G F                           ",
"                            M G N O P Q Q Q Q Q Q Q Q Q Q P O N G M                             ",
"                              F R S P z z z z z z z z z z P S R F                               ",
"                                T U I z z z z z z z z z z I U T                                 ",
"                                V W X Y z z z z z z z z Y X W V                                 ",
"                              Z `  ...+.@.#.$.$.$.$.#.@.+... .` Z                               ",
"                            M V ` %.&.*.=.-.;.>.>.;.-.=.*.&.%.` V M                             ",
"                          ,.'.).` !.~.{.].^./.(.(./.^.].{.~.!.` ).'.,.                          ",
"                        _.:.<.'.[.}.|.].1.2.(.(.(.(.2.1.].|.}.[.'.<.:._.                        ",
"                      3.4.5.6.7.8.9.0.a.(.(.(.(.(.(.(.(.a.0.9.8.7.6.5.4.3.                      ",
"                      b.c.d.e.f.g.h.i.j.k.*.(.(.(.(.*.k.j.i.h.g.f.e.d.c.b.                      ",
"                        l.m.n.  o.p.q.r.s.t.u.v.v.u.t.s.r.q.p.o.  n.m.l.                        ",
"                                w.x.y.z.A.B.C.D.D.C.B.A.z.y.x.w.                                ",
"                                E.F.G.H.I.J.*.*.*.*.J.I.H.G.F.E.                                ",
"                                K.L.M.N.O.P.J.*.*.J.P.O.N.M.L.K.                                ",
"                                Q.R.S.T.U.V.W.X.X.W.V.U.T.S.R.Q.                                ",
"                              Y.Z.`. +.+++@+@+@+@+@+@+++.+ +`.Z.Y.                              ",
"                              Y.@+M M M @+@+@+@+@+@+@+@+M M M @+Y.                              ",
"                              Y.@+@+@+#+@+@+@+@+@+@+@+@+#+#+@+@+Y.                              ",
"                              Y.Y.@+@+@+$+@+@+@+@+@+@+%+@+@+@+@+Y.                              ",
"                                Y.Y.Y.@+@+@+@+@+@+@+@+@+@+Y.Y.Y.                                ",
"                                    Y.Y.Y.Y.Y.Y.Y.Y.Y.Y.Y.Y.                                    ",
"                                                                                                ",
"                                                                                                ",
"                                                                                                "};
