/* XPM */
static char * test_feet_left_xpm[] = {
"50 50 22 1",
" 	c None",
".	c #403040",
"+	c #E87060",
"@	c #B05048",
"#	c #E8E8F8",
"$	c #000000",
"%	c #B8B8D8",
"&	c #503018",
"*	c #D89870",
"=	c #70514E",
"-	c #373737",
";	c #D8A078",
">	c #A8A0C8",
",	c #F8D0B8",
"'	c #C89800",
")	c #784040",
"!	c #384040",
"~	c #B8B0D0",
"{	c #A77E60",
"]	c #C03838",
"^	c #885028",
"/	c #406888",
"                   ............                   ",
"                 ..++++++++++++..                 ",
"                ..++++++++++++++..                ",
"               .@++++++++++++++++@.               ",
"              .@++++++++++++++++++@.              ",
"             .@++++++++++++++++++++@.             ",
"             .@++++++++++++++++++++@.             ",
"            .@++++++++++++++++++++++@.            ",
"            .@++++++++++++++++++++++@.            ",
"            .@++++++++++++++++++++++@.            ",
"           .@@@++++++++++++++++++++@@@.           ",
"           .@@@@+++++++####+++++++@@@@.           ",
"           .@@@@@@@@@@#@@@@#@@@@@@@@@@.           ",
"           $@@@@@@@@@%#@@@@#%@@@@@@@@@$           ",
"           $@@@@@@@@@%@@@@@@%@@@@@@@@@$           ",
"           $@@@@@@@@%%@@@@@@%%@@@@@@@@$           ",
"           $.@@@%%%%%%%%%%%%%%%%%%@@@.$           ",
"           $.@@@%%%%%%%%%%%%%%%%%%@@@.$           ",
"         &$$..@@%%%%%%%%%%%%%%%%%%@@..$$&         ",
"         $**=..@@%%############%%@@..=**$         ",
"         $**===....############....===**$         ",
"         $**--====...########...====--**$         ",
"         $**--;=======......=======;--**$         ",
"          $$--;;==>>--;;;;;;-->>==;;--$$          ",
"            --;;;=>>--;;;;;;-->>=;;;--            ",
"            $$;;;;##$$,,,,,,$$##;;;;$$            ",
"             $;;;;,#$$,,,,,,$$#,;;;;$             ",
"              $;;;,,,,,,,,,,,,,,;;;$              ",
"               --;;,,,,,,,,,,,,;;--               ",
"               $==;;,,,,;;,,,,;;==$               ",
"             $$$'==;;,,,,,,,,;;=='$               ",
"           )!!!!'''=;;;,,,,;;;='''$               ",
"          )!!!!!'''=~--{{{{--~='''$               ",
"         );;!!!!''']~~------~~]]'!!$              ",
"         );;;!!!'']]~~~~--~~~~]]'!!!$             ",
"         );;;;$$$^]]]~~~!!~~~]]]^!!!)             ",
"          );;)  ^^]]]~~~!!~~~]]]^!!!))            ",
"           ))   $))]]~~~!!~~~]])$!!;,,)           ",
"                $$))]~~~!!~~~]))$$;;,,)           ",
"               $!/$$$$$$$$$$$$$$$$,,,,)           ",
"               $!///////!!!!!!!!$$),,)            ",
"               $////////!!!!!!!$   ))             ",
"               $////////!!!!!!$                   ",
"               $!/////$$$$$$$$                    ",
"               $!!////$                           ",
"                $$!!!!!                           ",
"                 $!!!!!                           ",
"                 $]]]]$                           ",
"                 $]]]]$                           ",
"                  $$$$                            "};
