/* XPM */
static char * hero_feet_right_xpm[] = {
"48 50 302 2",
"  	c None",
". 	c #723F46",
"+ 	c #734046",
"@ 	c #2A3235",
"# 	c #7F4448",
"$ 	c #DF6C5E",
"% 	c #EA7160",
"& 	c #A34F4B",
"* 	c #DC6B5D",
"= 	c #E87060",
"- 	c #B0524B",
"; 	c #E46E5E",
"> 	c #A54C47",
", 	c #E56E5F",
"' 	c #BF5A50",
") 	c #E76F60",
"! 	c #914545",
"~ 	c #E16C5D",
"{ 	c #DF6B5C",
"] 	c #793E43",
"^ 	c #B05048",
"/ 	c #B45249",
"( 	c #E06C5D",
"_ 	c #E86F5F",
": 	c #E8837B",
"< 	c #E88D89",
"[ 	c #463140",
"} 	c #7A3E43",
"| 	c #B15048",
"1 	c #B6534A",
"2 	c #D66658",
"3 	c #D56558",
"4 	c #D56557",
"5 	c #DD837F",
"6 	c #DDBBC4",
"7 	c #D5C3CF",
"8 	c #733635",
"9 	c #B15148",
"0 	c #AF4F47",
"a 	c #AF6063",
"b 	c #CBC1D5",
"c 	c #C8A2AA",
"d 	c #AF483D",
"e 	c #70302B",
"f 	c #B15149",
"g 	c #B26E76",
"h 	c #B9A6BF",
"i 	c #B4615D",
"j 	c #672D2A",
"k 	c #AD4F48",
"l 	c #B05550",
"m 	c #B16A71",
"n 	c #B8B5D4",
"o 	c #B6A0BA",
"p 	c #B1686E",
"q 	c #191925",
"r 	c #934646",
"s 	c #B8BADB",
"t 	c #B8B9D9",
"u 	c #B8B8D8",
"v 	c #B8B8D9",
"w 	c #4F2F18",
"x 	c #000000",
"y 	c #683942",
"z 	c #AA4E47",
"A 	c #B8BADA",
"B 	c #B7B7D8",
"C 	c #B7B7D7",
"D 	c #181424",
"E 	c #342013",
"F 	c #C58A66",
"G 	c #AD7A5E",
"H 	c #4F3B44",
"I 	c #5F3842",
"J 	c #AC534F",
"K 	c #B28DA1",
"L 	c #B5B6D6",
"M 	c #DBDBEF",
"N 	c #E1E1F3",
"O 	c #2D1C12",
"P 	c #D5966E",
"Q 	c #B88264",
"R 	c #654B4A",
"S 	c #6D4F4D",
"T 	c #523943",
"U 	c #513C47",
"V 	c #463646",
"W 	c #C9C8D7",
"X 	c #DBDAEA",
"Y 	c #E9E9F9",
"Z 	c #E8E8F8",
"` 	c #D7976F",
" .	c #B37F60",
"..	c #263134",
"+.	c #956E5B",
"@.	c #70514E",
"#.	c #71524E",
"$.	c #604546",
"%.	c #4F3438",
"&.	c #6F6068",
"*.	c #C4C1CE",
"=.	c #BDBDCC",
"-.	c #895F45",
";.	c #745340",
">.	c #C99571",
",.	c #B18367",
"'.	c #6C4D4A",
").	c #8A788E",
"!.	c #9588A6",
"~.	c #554546",
"{.	c #7E5C4A",
"].	c #B18162",
"^.	c #B08062",
"/.	c #2D3234",
"(.	c #D79F77",
"_.	c #B18164",
":.	c #988BA9",
"<.	c #A9A1C8",
"[.	c #3D3D42",
"}.	c #916F58",
"|.	c #DBA37C",
"1.	c #D9A27B",
"2.	c #C8946F",
"3.	c #D8A078",
"4.	c #D79E74",
"5.	c #E2CCCB",
"6.	c #E3E3F2",
"7.	c #27292E",
"8.	c #9F8575",
"9.	c #F9D0B8",
"0.	c #F7CFB6",
"a.	c #A77B5B",
"b.	c #D8A077",
"c.	c #EDC0A2",
"d.	c #EEDBDA",
"e.	c #A3897B",
"f.	c #C7A793",
"g.	c #F9D1B9",
"h.	c #F8D0B8",
"i.	c #906D56",
"j.	c #B08464",
"k.	c #E1AD8A",
"l.	c #F6CCB3",
"m.	c #FAD2B9",
"n.	c #F8D1B9",
"o.	c #2F2422",
"p.	c #77574E",
"q.	c #BD8C6C",
"r.	c #DDA985",
"s.	c #F6CEB5",
"t.	c #E3B191",
"u.	c #B2872C",
"v.	c #836148",
"w.	c #C3916D",
"x.	c #F4CAB0",
"y.	c #F7CFB7",
"z.	c #584314",
"A.	c #131717",
"B.	c #181D1D",
"C.	c #584000",
"D.	c #CB9A00",
"E.	c #CA9A00",
"F.	c #84644C",
"G.	c #C69F97",
"H.	c #AE815E",
"I.	c #CFA68C",
"J.	c #DFB79F",
"K.	c #CA9900",
"L.	c #64563B",
"M.	c #384141",
"N.	c #374040",
"O.	c #553E3F",
"P.	c #303636",
"Q.	c #443F32",
"R.	c #A48026",
"S.	c #C67F20",
"T.	c #AD5049",
"U.	c #B2A9C9",
"V.	c #79768B",
"W.	c #584635",
"X.	c #6F5645",
"Y.	c #AE5D47",
"Z.	c #C99A00",
"`.	c #C99900",
" +	c #63563B",
".+	c #384040",
"++	c #2F3D3E",
"@+	c #91715B",
"#+	c #B88566",
"$+	c #7D4743",
"%+	c #363F40",
"&+	c #866D32",
"*+	c #C46A2B",
"=+	c #C04044",
"-+	c #B9ACCB",
";+	c #B4ACCB",
">+	c #ACA5C2",
",+	c #575560",
"'+	c #C04443",
")+	c #C37228",
"!+	c #C79800",
"~+	c #62553A",
"{+	c #38403F",
"]+	c #8A6D58",
"^+	c #D49D76",
"/+	c #D69E77",
"(+	c #433040",
"_+	c #604938",
":+	c #AF4432",
"<+	c #C03838",
"[+	c #BF5E6C",
"}+	c #B8B1D1",
"|+	c #B9B1D1",
"1+	c #5D5E6A",
"2+	c #AF4533",
"3+	c #653E19",
"4+	c #1C1107",
"5+	c #5D4332",
"6+	c #D09974",
"7+	c #D9A178",
"8+	c #CD9671",
"9+	c #986B62",
"0+	c #B78E80",
"a+	c #4F4036",
"b+	c #963D32",
"c+	c #BE3838",
"d+	c #BF5A66",
"e+	c #9C4239",
"f+	c #764527",
"g+	c #9C6855",
"h+	c #BC8667",
"i+	c #8A554A",
"j+	c #B68D7F",
"k+	c #FCD4BB",
"l+	c #DEA984",
"m+	c #001418",
"n+	c #5E3232",
"o+	c #963E3E",
"p+	c #BF5B67",
"q+	c #B9B2D3",
"r+	c #BBB2D3",
"s+	c #5E5F6B",
"t+	c #693838",
"u+	c #270D0E",
"v+	c #B58C7E",
"w+	c #F4CAB1",
"x+	c #261212",
"y+	c #321919",
"z+	c #51252A",
"A+	c #4F4C5B",
"B+	c #25262C",
"C+	c #25272C",
"D+	c #504D5D",
"E+	c #4F4D5D",
"F+	c #512830",
"G+	c #331D21",
"H+	c #354155",
"I+	c #364C5D",
"J+	c #131615",
"K+	c #CDA593",
"L+	c #E7C0AA",
"M+	c #7D4F4B",
"N+	c #282E2E",
"O+	c #363E3E",
"P+	c #373F3F",
"Q+	c #384750",
"R+	c #3F6787",
"S+	c #3F6686",
"T+	c #3C566B",
"U+	c #141A1E",
"V+	c #62996A",
"W+	c #292F2F",
"X+	c #394141",
"Y+	c #3A4952",
"Z+	c #41698A",
"`+	c #406888",
" @	c #172A3A",
".@	c #6BA674",
"+@	c #202525",
"@@	c #202626",
"#@	c #212B31",
"$@	c #254055",
"%@	c #385C78",
"&@	c #406989",
"*@	c #3E5C74",
"=@	c #151F27",
"-@	c #32526B",
";@	c #406787",
">@	c #3D5D76",
",@	c #384245",
"'@	c #131716",
")@	c #374142",
"!@	c #374244",
"~@	c #2B3436",
"{@	c #020302",
"]@	c #6B3939",
"^@	c #823D3D",
"/@	c #672F2F",
"(@	c #C33838",
"_@	c #9C2B2B",
":@	c #521313",
"<@	c #4E1111",
"                                                                                                ",
"                                                                                                ",
"                                                                                                ",
"                                                                                                ",
"                                                                                                ",
"                                                                                                ",
"                                  . + + + + + + + + .                                           ",
"                              @ # $ % % % % % % % % $ # @                                       ",
"                            @ & * = = = = = = = = = = * & @                                     ",
"                          @ - ; = = = = = = = = = = = = ; - @                                   ",
"                        @ > , = = = = = = = = = = = = = = , > @                                 ",
"                        @ ' ) = = = = = = = = = = = = = = ) ' @                                 ",
"                      @ ! ~ = = = = = = = = = = = = = = = = ~ ! @                               ",
"                      @ ! { = = = = = = = = = = = = = = = = { ! @                               ",
"                      ] ^ / ( = = = = _ : < < : _ = = = = ( / ^ [                               ",
"                      } | ^ 1 2 3 3 4 5 6 7 7 6 5 4 3 3 2 1 ^ | }                               ",
"                      8 9 ^ ^ 0 0 0 a b c d d c b a 0 0 0 ^ ^ 9 8                               ",
"                      e f ^ ^ ^ ^ ^ g h i ^ ^ i h g ^ ^ ^ ^ ^ f e                               ",
"                      j k ^ l m m g n o p m m p o n g m m l ^ k j                               ",
"                      q r ^ m s t t u v t t t t v u t t s m ^ r q                               ",
"                  w q x y z m A u B C C C C C C C C B u A m z y D q w                           ",
"                  E F G H I J K L M N N N N N N N N M L K J I H G F E                           ",
"                  O P Q R S T U V W X Y Z Z Z Z Y X W V U T S R Q P O                           ",
"                  O `  ...+.@.#.$.%.&.*.=.=.=.=.*.&.%.$.#.@.+... .` O                           ",
"                    -.;.@ >.,.'.).!.~.{.].^.^.].{.~.!.).'.,.>.@ ;.-.                            ",
"                        /.>.(._.:.<.[.}.|.1.1.|.}.[.<.:._.(.>./.                                ",
"                        x 2.3.4.5.6.7.8.9.0.0.9.8.7.6.5.4.3.2.x                                 ",
"                          a.3.b.c.d.e.f.g.h.h.g.f.e.d.c.b.3.a.                                  ",
"                            i.j.k.l.m.g.h.n.n.h.g.m.l.k.j.i.                                    ",
"                            o.p.q.r.s.h.n.t.t.n.h.s.r.q.p.o.                                    ",
"                            x u.v.w.r.x.s.y.y.s.x.r.w.v.u.z.A.B.                                ",
"                          x C.D.E.F.G.H.I.J.J.I.H.G.F.E.K.L.M.N.O.                              ",
"                        x P.Q.R.S.T.U.V.W.X.X.W.V.U.Y.Z.`. +.+++@+#+$+                          ",
"                        x %+%+&+*+=+-+;+>+,+,+>+;+-+'+)+!+~+{+]+^+/+$+                          ",
"                      x (+%+%+_+:+<+[+}+|+1+1+|+}+[+<+2+3+4+5+6+7+8+$+                          ",
"                      9+0+(+N.a+b+c+d+}+|+1+1+|+}+d+c+e+f+    g+h+i+                            ",
"                    9+j+k+l+(+m+n+o+p+q+r+s+s+r+q+p+o+t+u+                                      ",
"                    9+v+h.w+(+x x+y+z+A+A+B+C+D+E+F+G+H+I+J+                                    ",
"                      9+K+L+M+x N+O+P+P+P+P+Q+R+S+S+S+R+T+U+                                    ",
"                        9+9+V+V+V+W+.+X+X+X+Y+Z+`+`+`+`+Z+ @                                    ",
"                        .@V+V+V+V+V++@@@@@@@#@$@%@`+`+&@*@=@                                    ",
"                        .@V+V+V+V+V+V+V+V+V+V+V+-@;@;@>@,@'@                                    ",
"                        .@V+V+V+V+V+V+V+V+V+V+V+)@!@!@~@{@V+                                    ",
"                          .@V+V+V+V+V+V+V+V+V+V+]@^@^@/@#@.@                                    ",
"                            .@.@V+V+V+V+V+V+V+V+]@(@(@_@#@.@                                    ",
"                                .@V+V+V+V+V+V+V+V+:@:@<@.@                                      ",
"                                  .@.@.@V+V+V+V+V+.@.@.@                                        ",
"                                        .@.@.@.@.@                                              ",
"                                                                                                ",
"                                                                                                "};
