/* XPM */
static char * hero_feet_left_xpm[] = {
"48 50 301 2",
"  	c None",
". 	c #723F46",
"+ 	c #734046",
"@ 	c #2A3235",
"# 	c #7F4448",
"$ 	c #DF6C5E",
"% 	c #EA7160",
"& 	c #A34F4B",
"* 	c #DC6B5D",
"= 	c #E87060",
"- 	c #B0524B",
"; 	c #E46E5E",
"> 	c #A54C47",
", 	c #E56E5F",
"' 	c #BF5A50",
") 	c #E76F60",
"! 	c #914545",
"~ 	c #E16C5D",
"{ 	c #DF6B5C",
"] 	c #793E43",
"^ 	c #B05048",
"/ 	c #B45249",
"( 	c #E06C5D",
"_ 	c #E86F5F",
": 	c #E8837B",
"< 	c #E88D89",
"[ 	c #7A3E43",
"} 	c #B15048",
"| 	c #B6534A",
"1 	c #D66658",
"2 	c #D56558",
"3 	c #D56557",
"4 	c #DD837F",
"5 	c #DDBBC4",
"6 	c #D5C3CF",
"7 	c #733635",
"8 	c #B15148",
"9 	c #AF4F47",
"0 	c #AF6063",
"a 	c #CBC1D5",
"b 	c #C8A2AA",
"c 	c #AF483D",
"d 	c #70302B",
"e 	c #B15149",
"f 	c #B26E76",
"g 	c #B9A6BF",
"h 	c #B4615D",
"i 	c #672D2A",
"j 	c #AD4F48",
"k 	c #B05550",
"l 	c #B16A71",
"m 	c #B8B5D4",
"n 	c #B6A0BA",
"o 	c #B1686E",
"p 	c #191925",
"q 	c #934646",
"r 	c #B8BADB",
"s 	c #B8B9D9",
"t 	c #B8B8D8",
"u 	c #B8B8D9",
"v 	c #4F2F18",
"w 	c #181424",
"x 	c #683942",
"y 	c #AA4E47",
"z 	c #B8BADA",
"A 	c #B7B7D8",
"B 	c #B7B7D7",
"C 	c #000000",
"D 	c #342013",
"E 	c #C58A66",
"F 	c #AD7A5E",
"G 	c #4F3B44",
"H 	c #5F3842",
"I 	c #AC534F",
"J 	c #B28DA1",
"K 	c #B5B6D6",
"L 	c #DBDBEF",
"M 	c #E1E1F3",
"N 	c #2D1C12",
"O 	c #D5966E",
"P 	c #B88264",
"Q 	c #654B4A",
"R 	c #6D4F4D",
"S 	c #523943",
"T 	c #513C47",
"U 	c #463646",
"V 	c #C9C8D7",
"W 	c #DBDAEA",
"X 	c #E9E9F9",
"Y 	c #E8E8F8",
"Z 	c #D7976F",
"` 	c #B37F60",
" .	c #263134",
"..	c #956E5B",
"+.	c #70514E",
"@.	c #71524E",
"#.	c #604546",
"$.	c #4F3438",
"%.	c #6F6068",
"&.	c #C4C1CE",
"*.	c #BDBDCC",
"=.	c #895F45",
"-.	c #745340",
";.	c #C99571",
">.	c #B18367",
",.	c #6C4D4A",
"'.	c #8A788E",
").	c #9588A6",
"!.	c #554546",
"~.	c #7E5C4A",
"{.	c #B18162",
"].	c #B08062",
"^.	c #2D3234",
"/.	c #D79F77",
"(.	c #B18164",
"_.	c #988BA9",
":.	c #A9A1C8",
"<.	c #3D3D42",
"[.	c #916F58",
"}.	c #DBA37C",
"|.	c #D9A27B",
"1.	c #C8946F",
"2.	c #D8A078",
"3.	c #D79E74",
"4.	c #E2CCCB",
"5.	c #E3E3F2",
"6.	c #27292E",
"7.	c #9F8575",
"8.	c #F9D0B8",
"9.	c #F7CFB6",
"0.	c #A77B5B",
"a.	c #D8A077",
"b.	c #EDC0A2",
"c.	c #EEDBDA",
"d.	c #A3897B",
"e.	c #C7A793",
"f.	c #F9D1B9",
"g.	c #F8D0B8",
"h.	c #906D56",
"i.	c #B08464",
"j.	c #E1AD8A",
"k.	c #F6CCB3",
"l.	c #FAD2B9",
"m.	c #F8D1B9",
"n.	c #2F2422",
"o.	c #77574E",
"p.	c #BD8C6C",
"q.	c #DDA985",
"r.	c #F6CEB5",
"s.	c #E3B191",
"t.	c #181D1D",
"u.	c #131717",
"v.	c #584314",
"w.	c #B2872C",
"x.	c #836148",
"y.	c #C3916D",
"z.	c #F4CAB0",
"A.	c #F7CFB7",
"B.	c #553E3F",
"C.	c #374040",
"D.	c #384141",
"E.	c #64563B",
"F.	c #CA9900",
"G.	c #CA9A00",
"H.	c #84644C",
"I.	c #C69F97",
"J.	c #AE815E",
"K.	c #CFA68C",
"L.	c #DFB79F",
"M.	c #CB9A00",
"N.	c #584000",
"O.	c #7D4743",
"P.	c #B88566",
"Q.	c #91715B",
"R.	c #2F3D3E",
"S.	c #384040",
"T.	c #63563B",
"U.	c #C99900",
"V.	c #C99A00",
"W.	c #AE5D47",
"X.	c #B2A9C9",
"Y.	c #79768B",
"Z.	c #584635",
"`.	c #6F5645",
" +	c #AD5049",
".+	c #C67F20",
"++	c #A48026",
"@+	c #443F32",
"#+	c #303636",
"$+	c #D69E77",
"%+	c #D49D76",
"&+	c #8A6D58",
"*+	c #38403F",
"=+	c #62553A",
"-+	c #C79800",
";+	c #C37228",
">+	c #C04443",
",+	c #B9ACCB",
"'+	c #B4ACCB",
")+	c #ACA5C2",
"!+	c #575560",
"~+	c #C04044",
"{+	c #C46A2B",
"]+	c #866D32",
"^+	c #363F40",
"/+	c #CD9671",
"(+	c #D9A178",
"_+	c #D09974",
":+	c #5D4332",
"<+	c #1C1107",
"[+	c #653E19",
"}+	c #AF4533",
"|+	c #C03838",
"1+	c #BF5E6C",
"2+	c #B8B1D1",
"3+	c #B9B1D1",
"4+	c #5D5E6A",
"5+	c #AF4432",
"6+	c #604938",
"7+	c #433040",
"8+	c #8A554A",
"9+	c #BC8667",
"0+	c #9C6855",
"a+	c #764527",
"b+	c #9C4239",
"c+	c #BE3838",
"d+	c #BF5A66",
"e+	c #963D32",
"f+	c #4F4036",
"g+	c #B78E80",
"h+	c #986B62",
"i+	c #270D0E",
"j+	c #693838",
"k+	c #963E3E",
"l+	c #BF5B67",
"m+	c #B9B2D3",
"n+	c #BBB2D3",
"o+	c #5E5F6B",
"p+	c #5E3232",
"q+	c #001418",
"r+	c #DEA984",
"s+	c #FCD4BB",
"t+	c #B68D7F",
"u+	c #131615",
"v+	c #364C5D",
"w+	c #354155",
"x+	c #331D21",
"y+	c #512830",
"z+	c #4F4D5D",
"A+	c #504D5D",
"B+	c #25272C",
"C+	c #25262C",
"D+	c #4F4C5B",
"E+	c #51252A",
"F+	c #321919",
"G+	c #261212",
"H+	c #F4CAB1",
"I+	c #B58C7E",
"J+	c #141A1E",
"K+	c #3C566B",
"L+	c #3F6787",
"M+	c #3F6686",
"N+	c #384750",
"O+	c #373F3F",
"P+	c #363E3E",
"Q+	c #282E2E",
"R+	c #7D4F4B",
"S+	c #E7C0AA",
"T+	c #CDA593",
"U+	c #172A3A",
"V+	c #41698A",
"W+	c #406888",
"X+	c #3A4952",
"Y+	c #394141",
"Z+	c #292F2F",
"`+	c #62996A",
" @	c #151F27",
".@	c #3E5C74",
"+@	c #406989",
"@@	c #385C78",
"#@	c #254055",
"$@	c #212B31",
"%@	c #202626",
"&@	c #202525",
"*@	c #6BA674",
"=@	c #131716",
"-@	c #384245",
";@	c #3D5D76",
">@	c #406787",
",@	c #32526B",
"'@	c #020302",
")@	c #2B3436",
"!@	c #374244",
"~@	c #374142",
"{@	c #672F2F",
"]@	c #823D3D",
"^@	c #6B3939",
"/@	c #9C2B2B",
"(@	c #C33838",
"_@	c #4E1111",
":@	c #521313",
"                                                                                                ",
"                                                                                                ",
"                                                                                                ",
"                                                                                                ",
"                                                                                                ",
"                                                                                                ",
"                                      . + + + + + + + + .                                       ",
"                                  @ # $ % % % % % % % % $ # @                                   ",
"                                @ & * = = = = = = = = = = * & @                                 ",
"                              @ - ; = = = = = = = = = = = = ; - @                               ",
"                            @ > , = = = = = = = = = = = = = = , > @                             ",
"                            @ ' ) = = = = = = = = = = = = = = ) ' @                             ",
"                          @ ! ~ = = = = = = = = = = = = = = = = ~ ! @                           ",
"                          @ ! { = = = = = = = = = = = = = = = = { ! @                           ",
"                          ] ^ / ( = = = = _ : < < : _ = = = = ( / ^ ]                           ",
"                          [ } ^ | 1 2 2 3 4 5 6 6 5 4 3 2 2 1 | ^ } [                           ",
"                          7 8 ^ ^ 9 9 9 0 a b c c b a 0 9 9 9 ^ ^ 8 7                           ",
"                          d e ^ ^ ^ ^ ^ f g h ^ ^ h g f ^ ^ ^ ^ ^ e d                           ",
"                          i j ^ k l l f m n o l l o n m f l l k ^ j i                           ",
"                          p q ^ l r s s t u s s s s u t s s r l ^ q p                           ",
"                      v p w x y l z t A B B B B B B B B A t z l y x C p v                       ",
"                      D E F G H I J K L M M M M M M M M L K J I H G F E D                       ",
"                      N O P Q R S T U V W X Y Y Y Y X W V U T S R Q P O N                       ",
"                      N Z `  ...+.@.#.$.%.&.*.*.*.*.&.%.$.#.@.+... .` Z N                       ",
"                        =.-.@ ;.>.,.'.).!.~.{.].].{.~.!.).'.,.>.;.@ -.=.                        ",
"                            ^.;./.(._.:.<.[.}.|.|.}.[.<.:._.(./.;.^.                            ",
"                            C 1.2.3.4.5.6.7.8.9.9.8.7.6.5.4.3.2.1.C                             ",
"                              0.2.a.b.c.d.e.f.g.g.f.e.d.c.b.a.2.0.                              ",
"                                h.i.j.k.l.f.g.m.m.g.f.l.k.j.i.h.                                ",
"                                n.o.p.q.r.g.m.s.s.m.g.r.q.p.o.n.                                ",
"                            t.u.v.w.x.y.q.z.r.A.A.r.z.q.y.x.w.C                                 ",
"                          B.C.D.E.F.G.H.I.J.K.L.L.K.J.I.H.G.M.N.C                               ",
"                      O.P.Q.R.S.T.U.V.W.X.Y.Z.`.`.Z.Y.X. +.+++@+#+C                             ",
"                      O.$+%+&+*+=+-+;+>+,+'+)+!+!+)+'+,+~+{+]+^+^+C                             ",
"                      O./+(+_+:+<+[+}+|+1+2+3+4+4+3+2+1+|+5+6+^+^+7+C                           ",
"                        8+9+0+    a+b+c+d+2+3+4+4+3+2+d+c+e+f+C.7+g+h+                          ",
"                                  i+j+k+l+m+n+o+o+n+m+l+k+p+q+7+r+s+t+h+                        ",
"                                u+v+w+x+y+z+A+B+C+D+D+E+F+G+C 7+H+g.I+h+                        ",
"                                J+K+L+M+M+M+L+N+O+O+O+O+P+Q+C R+S+T+h+                          ",
"                                U+V+W+W+W+W+V+X+Y+Y+Y+S.Z+`+`+`+h+h+                            ",
"                                 @.@+@W+W+@@#@$@%@%@%@&@`+`+`+`+`+*@                            ",
"                                =@-@;@>@>@,@`+`+`+`+`+`+`+`+`+`+`+*@                            ",
"                                `+'@)@!@!@~@`+`+`+`+`+`+`+`+`+`+`+*@                            ",
"                                *@$@{@]@]@^@`+`+`+`+`+`+`+`+`+`+*@                              ",
"                                *@$@/@(@(@^@`+`+`+`+`+`+`+`+*@*@                                ",
"                                  *@_@:@:@`+`+`+`+`+`+`+`+*@                                    ",
"                                    *@*@*@`+`+`+`+`+*@*@*@                                      ",
"                                          *@*@*@*@*@                                            ",
"                                                                                                ",
"                                                                                                "};
