/* XPM */
static char * arbre_xpm[] = {
"48 50 14 1",
" 	c None",
".	c #3C3424",
"+	c #B1D66C",
"@	c #70AB5E",
"#	c #8DBF62",
"$	c #4B9352",
"%	c #277644",
"&	c #17633F",
"*	c #0D5131",
"=	c #5D9265",
"-	c #397B54",
";	c #685431",
">	c #8B662C",
",	c #4F462B",
"                                                ",
"                      ....                      ",
"                     .++++.                     ",
"                   ..@++++@..                   ",
"                ...#@++++++@#...                ",
"               .++##$++++++$##++.               ",
"              .+++#@++++++++@#+++.              ",
"            ..%+++##++++++++##+++%..            ",
"           .##%######++++++######%##.           ",
"          .###@$$######++######$$@###.          ",
"          .@#@$++++##########++++$@#@.          ",
"          .@@$#+++++########+++++#$@@.          ",
"          .%@$#++++##########++++#$@%.          ",
"         .@@@$##++###++##++###++##$@@@.         ",
"        .@##@@$#####++++++++#####$@##@@.        ",
"        .##+#@@$$$$#++++#+++#$$$$@@#+##.        ",
"        .#####@@@@$##++###+##$@@@@####@.        ",
"        .@###@@@#@@$###$$###$@@@@@@##@@.        ",
"         .@@@$@@@@@@$$$@@$$$@@@@@#$@@@.         ",
"        .$%%$@@###@@@@@@@@@@@@####@$%%$.        ",
"       .@@$$%@####@@@@####@$@@####@%$$@@.       ",
"       .@@@$%@####@$@######$$@@###@%$@@@.       ",
"      ..$@@$$%@##@$%$@####@$%%@##@%$$@@$..      ",
"     .%%&$$$$$%$$$%$%@@##@@%$$%%%%$$@@$&%%.     ",
"     .$%%&&%@$$%%%$$$%@@@@%$$$$$$$$$%&&%$$.     ",
"     .$$%%%&@@$$$$$$$$%%%%$$$$$$@@@@&%%%$$.     ",
"     .$$$%%&@@@@$$$@@$$$$$$@@$%$$@@$&%%$$%.     ",
"     .$$$%%&$@@@$%@@@@@$$@@@@@&&$$$&%%%$$%.     ",
"      .$$%%%&$$$&&@@@@@@@@@@@@&%&&&%%%%%%.      ",
"       .*&$%%&&&%&$@@@@$$@@@@$&%%%%%$$**.       ",
"        .$$$%%%%%%&$@@$&&$@@$&%%%%%$@$$.        ",
"        .$$$$$%%%%%&&&&%%&&&&%%$%%$$$$$.        ",
"        .$$$$%%$$$%%%%%$$%%%%%$$$&%$$$%.        ",
"        .%$$%%&$$@$$%%$$$$$%$$$$$&%%$$%.        ",
"         .%%%*$$$$$$%$$$$$$%%$$$$%&%%%.         ",
"          ...*$$$$$$&%$$$$%&%$$$$%*...          ",
"          =--.%$$$$%*%$$$$%*%%$$%%.--=          ",
"         =----..%$%..%%$$%%..%%%..----=         ",
"         =------...;..%%%%..;...------=         ",
"         =------.>>;,;....;,;>>.------=         ",
"         =------,;;;;;>>>>;;;;;,---=--=         ",
"          =-==--,..,;>>>>>>;,..,-----=          ",
"          =-==------.,>>>>,.---------=          ",
"          ==-----=---.;;;;.-----==--==          ",
"           =----------....------=---=           ",
"            ==--------------------==            ",
"             ===--=----------=--===             ",
"               =====--------=====               ",
"                   ==========                   ",
"                                                "};
