/* XPM */
static char * exit_xpm[] = {
"48 50 448 2",
"  	c None",
". 	c #B98851",
"+ 	c #BC8D52",
"@ 	c #B58550",
"# 	c #B78550",
"$ 	c #B78650",
"% 	c #BF9252",
"& 	c #B88751",
"* 	c #AC7D4E",
"= 	c #A4754C",
"- 	c #C19453",
"; 	c #BB8B51",
"> 	c #C29653",
", 	c #A1734B",
"' 	c #9C6C4A",
") 	c #AE764B",
"! 	c #A6724B",
"~ 	c #9E6E4A",
"{ 	c #A6774C",
"] 	c #B37E4D",
"^ 	c #AD7B4D",
"/ 	c #B27E4D",
"( 	c #A7794C",
"_ 	c #C29553",
": 	c #7C5237",
"< 	c #986A4A",
"[ 	c #AA744B",
"} 	c #A9754C",
"| 	c #B27E4E",
"1 	c #B17E4E",
"2 	c #B9884F",
"3 	c #B9874F",
"4 	c #B8864F",
"5 	c #795034",
"6 	c #A2704B",
"7 	c #996B4A",
"8 	c #8C6040",
"9 	c #AF774B",
"0 	c #986B4A",
"a 	c #9A6C4A",
"b 	c #A8724B",
"c 	c #9B6C4A",
"d 	c #B7854F",
"e 	c #BD8E51",
"f 	c #A5774C",
"g 	c #724A2F",
"h 	c #926545",
"i 	c #946747",
"j 	c #936646",
"k 	c #A47049",
"l 	c #906444",
"m 	c #A16F4A",
"n 	c #AB744B",
"o 	c #9D6C49",
"p 	c #734A2F",
"q 	c #8C6041",
"r 	c #744B30",
"s 	c #966848",
"t 	c #976A49",
"u 	c #7A5135",
"v 	c #9A6B4A",
"w 	c #926646",
"x 	c #9D6C48",
"y 	c #865939",
"z 	c #AC754B",
"A 	c #A8734B",
"B 	c #A5714B",
"C 	c #9E704B",
"D 	c #B4844F",
"E 	c #B68551",
"F 	c #C09452",
"G 	c #B17C4C",
"H 	c #A06E4A",
"I 	c #7B5236",
"J 	c #966948",
"K 	c #754C31",
"L 	c #81573A",
"M 	c #916444",
"N 	c #A8724A",
"O 	c #764D32",
"P 	c #774E33",
"Q 	c #774D32",
"R 	c #855A3C",
"S 	c #805639",
"T 	c #A7724A",
"U 	c #996B49",
"V 	c #B48450",
"W 	c #B48350",
"X 	c #7F5537",
"Y 	c #9A6C4B",
"Z 	c #8B5E3F",
"` 	c #986A49",
" .	c #84583A",
"..	c #7E5438",
"+.	c #6E442A",
"@.	c #7D5337",
"#.	c #6B4026",
"$.	c #83583B",
"%.	c #8F6344",
"&.	c #7A5035",
"*.	c #AC794C",
"=.	c #BC8E52",
"-.	c #BE9252",
";.	c #7C5236",
">.	c #8B5F41",
",.	c #70472C",
"'.	c #653920",
").	c #72482E",
"!.	c #6E452A",
"~.	c #885C3E",
"{.	c #70462C",
"].	c #64381F",
"^.	c #683D23",
"/.	c #6E4329",
"(.	c #693F25",
"_.	c #63361D",
":.	c #71472D",
"<.	c #663B22",
"[.	c #784F33",
"}.	c #72492F",
"|.	c #AF794B",
"1.	c #BD8E52",
"2.	c #9C6E4B",
"3.	c #81563A",
"4.	c #72492E",
"5.	c #61341B",
"6.	c #6D4329",
"7.	c #6F452B",
"8.	c #6C4128",
"9.	c #693E25",
"0.	c #62351C",
"a.	c #62341B",
"b.	c #744A2F",
"c.	c #422925",
"d.	c #663A21",
"e.	c #AD754B",
"f.	c #AF784B",
"g.	c #BD9252",
"h.	c #C09252",
"i.	c #BA8A51",
"j.	c #C39653",
"k.	c #845A3B",
"l.	c #64381E",
"m.	c #683D24",
"n.	c #64371F",
"o.	c #62351D",
"p.	c #6C4228",
"q.	c #573120",
"r.	c #70472D",
"s.	c #70462B",
"t.	c #3D2524",
"u.	c #63351C",
"v.	c #64371E",
"w.	c #472922",
"x.	c #6A4026",
"y.	c #865B3D",
"z.	c #9C6D4A",
"A.	c #C09353",
"B.	c #AE7C4D",
"C.	c #754C30",
"D.	c #82583A",
"E.	c #673C22",
"F.	c #61341C",
"G.	c #512D20",
"H.	c #5C3826",
"I.	c #60341D",
"J.	c #2F2025",
"K.	c #4E2B20",
"L.	c #62351B",
"M.	c #3B2424",
"N.	c #5C321E",
"O.	c #5A311E",
"P.	c #58301E",
"Q.	c #63371E",
"R.	c #936341",
"S.	c #A87C4D",
"T.	c #9F6E4A",
"U.	c #A87249",
"V.	c #6A3F26",
"W.	c #5D331D",
"X.	c #522E20",
"Y.	c #4D2C21",
"Z.	c #412623",
"`.	c #312125",
" +	c #4F2C21",
".+	c #392424",
"++	c #56301F",
"@+	c #532E20",
"#+	c #59311E",
"$+	c #502D20",
"%+	c #906344",
"&+	c #794F34",
"*+	c #966542",
"=+	c #B58350",
"-+	c #A87B4D",
";+	c #7B5235",
">+	c #71482D",
",+	c #4E2C21",
"'+	c #61351C",
")+	c #302025",
"!+	c #402623",
"~+	c #332125",
"{+	c #4F2D21",
"]+	c #342225",
"^+	c #3C2524",
"/+	c #3E2524",
"(+	c #8A5F40",
"_+	c #A9734A",
":+	c #B98D51",
"<+	c #BB8B52",
"[+	c #AA7D4D",
"}+	c #784E33",
"|+	c #673B22",
"1+	c #2E2025",
"2+	c #422723",
"3+	c #322125",
"4+	c #59311F",
"5+	c #60341C",
"6+	c #734B30",
"7+	c #996946",
"8+	c #A3764C",
"9+	c #BE9052",
"0+	c #C19353",
"a+	c #A47A48",
"b+	c #895D3F",
"c+	c #996844",
"d+	c #673C23",
"e+	c #683C22",
"f+	c #382324",
"g+	c #432723",
"h+	c #5E331D",
"i+	c #482922",
"j+	c #4B2B22",
"k+	c #492A22",
"l+	c #372324",
"m+	c #4A2A22",
"n+	c #AA7B4D",
"o+	c #C29552",
"p+	c #794F33",
"q+	c #754B30",
"r+	c #552F1F",
"s+	c #362225",
"t+	c #452822",
"u+	c #693D24",
"v+	c #7F5538",
"w+	c #A7724B",
"x+	c #A26F4A",
"y+	c #A46F47",
"z+	c #603721",
"A+	c #9B6D4A",
"B+	c #BE8F51",
"C+	c #5F331D",
"D+	c #7B5136",
"E+	c #B2864F",
"F+	c #9E704A",
"G+	c #8F6343",
"H+	c #5F341E",
"I+	c #4B2B21",
"J+	c #9B7244",
"K+	c #B98951",
"L+	c #B88651",
"M+	c #8D6142",
"N+	c #58311F",
"O+	c #5F3620",
"P+	c #8A5E40",
"Q+	c #AB7F4E",
"R+	c #B17D4D",
"S+	c #996A49",
"T+	c #6A432B",
"U+	c #5C321D",
"V+	c #57301F",
"W+	c #70482E",
"X+	c #C09352",
"Y+	c #A4714B",
"Z+	c #AD764B",
"`+	c #865A3A",
" @	c #72482D",
".@	c #563324",
"+@	c #805539",
"@@	c #A0714B",
"#@	c #875C3E",
"$@	c #65381F",
"%@	c #3F2624",
"&@	c #372224",
"*@	c #734A30",
"=@	c #9D6D4A",
"-@	c #BB8C51",
";@	c #B2814F",
">@	c #6F442A",
",@	c #5B321E",
"'@	c #4C2B21",
")@	c #9F724B",
"!@	c #AB7C4D",
"~@	c #7E5437",
"{@	c #5E341E",
"]@	c #926342",
"^@	c #9F6E4B",
"/@	c #B4894C",
"(@	c #9F7144",
"_@	c #653C25",
":@	c #7A5034",
"<@	c #A67A4D",
"[@	c #B4814E",
"}@	c #A5714A",
"|@	c #73492F",
"1@	c #442823",
"2@	c #7A5033",
"3@	c #BE9152",
"4@	c #9C6E4A",
"5@	c #9D6D4B",
"6@	c #643920",
"7@	c #502D21",
"8@	c #62361D",
"9@	c #91613E",
"0@	c #AB754B",
"a@	c #AE824D",
"b@	c #8E6143",
"c@	c #906343",
"d@	c #653A21",
"e@	c #5D331E",
"f@	c #9D6A45",
"g@	c #A4704A",
"h@	c #B27D4E",
"i@	c #A2744B",
"j@	c #352225",
"k@	c #A16F4B",
"l@	c #8D623C",
"m@	c #663A20",
"n@	c #3E2623",
"o@	c #71482E",
"p@	c #83573A",
"q@	c #B28150",
"r@	c #865B3B",
"s@	c #4D2B21",
"t@	c #63361C",
"u@	c #58301F",
"v@	c #916545",
"w@	c #966946",
"x@	c #B2834E",
"y@	c #AC744A",
"z@	c #6A3F25",
"A@	c #392324",
"B@	c #59301E",
"C@	c #8C5E3E",
"D@	c #B37F4E",
"E@	c #B0844F",
"F@	c #A67149",
"G@	c #AA744A",
"H@	c #6B4127",
"I@	c #976949",
"J@	c #BC8C52",
"K@	c #AD804E",
"L@	c #542F1F",
"M@	c #84593C",
"N@	c #AD7F4E",
"O@	c #A5764D",
"P@	c #8D6140",
"Q@	c #3A2424",
"R@	c #744A30",
"S@	c #885A39",
"T@	c #A1724C",
"U@	c #B78651",
"V@	c #6F442B",
"W@	c #462922",
"X@	c #A4734B",
"Y@	c #B58450",
"Z@	c #A5764B",
"`@	c #4B2A21",
" #	c #452823",
".#	c #A17846",
"+#	c #BB8C52",
"@#	c #A07645",
"##	c #7B5836",
"$#	c #AF844B",
"%#	c #C19553",
"&#	c #65412D",
"*#	c #3A2626",
"=#	c #BF9052",
"-#	c #8A5F41",
";#	c #362325",
">#	c #352325",
",#	c #3B2726",
"'#	c #784F32",
")#	c #A17347",
"!#	c #A97B4D",
"~#	c #63412E",
"{#	c #422B27",
"]#	c #513429",
"^#	c #603E2C",
"/#	c #5F3D2B",
"(#	c #402927",
"_#	c #312025",
":#	c #2F1F25",
"<#	c #5E3C2B",
"[#	c #976541",
"}#	c #9B6842",
"|#	c #83593C",
"1#	c #3B2626",
"2#	c #613F2C",
"3#	c #2E1F25",
"4#	c #6F482F",
"5#	c #7F5438",
"6#	c #B78B50",
"7#	c #A8774D",
"8#	c #AF7A4C",
"9#	c #8A5B3A",
"0#	c #4C3128",
"a#	c #4F3329",
"b#	c #4E3228",
"c#	c #8C5F40",
"d#	c #A06F4B",
"e#	c #64402C",
"f#	c #4E3329",
"g#	c #70492F",
"h#	c #A4744C",
"i#	c #B7854E",
"j#	c #BA8A50",
"k#	c #AF7B4D",
"l#	c #92663F",
"m#	c #875E3B",
"n#	c #85593A",
"o#	c #57382A",
"p#	c #4D3128",
"q#	c #895E3F",
"r#	c #936843",
"s#	c #B17C4D",
"t#	c #774E31",
"u#	c #B78C4E",
"v#	c #BE9351",
"w#	c #B07B4C",
"x#	c #885E3B",
"y#	c #9D704A",
"z#	c #875D3B",
"A#	c #845B38",
"B#	c #AC8248",
"C#	c #C19452",
"D#	c #B0794C",
"E#	c #9F714B",
"F#	c #855A3A",
"G#	c #9C6F4A",
"H#	c #B8874F",
"I#	c #B1804F",
"J#	c #B5894D",
"K#	c #BA8B51",
"L#	c #C39853",
"M#	c #BA8E51",
"N#	c #BD8F51",
"O#	c #BA8951",
"                                                                                                ",
"                                              . + @ # $ %                                       ",
"                        & * = - + &       ; - > , ' ) ! ~ { ] ^ / ( _ - > &                     ",
"                      & > : < [ ) } | 1 2 3 4 ) 5 < 6 7 7 8 9 0 a ' b c d e &                   ",
"                      > f g h ! i j k l m ! n o p q r s t u v 7 w 7 x y z A B C                 ",
"                D E F G H p I J K L u M 7 7 N O r r r O P Q 7 t O h R S c T U 7 V               ",
"              W X Y Z `  .r r r r r r ..a 7 t p r r r +.r r @.p #.r r S $.%.&.*.=.              ",
"              -.;.>.r p r ,.r '.).r !.r S p ~.r {.p ].^.r /.(.r _.:.<.r [.M }.|.> +             ",
"            1.2.3.K r 4.r 5.r '.6.7.].r 8.4.r (.9.4.0.a.b.c.0.p _.!.5.r d.K O e.f.g.h.i.        ",
"          & j.k.0 p r l.{.#.m.'.n.7.o.,.p._.)._.q.r.0.a.s.t.u.v.w.0.x.{.].r y.[ z.< ) .         ",
"          A.B.C.D.r r v.0.E.0.F.G.H.I.0.p.0.9.0.J.K.0.0.L.M.N.O.t.0.P.0.Q.r Y m 0 R.A 2.        ",
"          S.T.U.O V.:.Q.0.W.0.F.X.Y.I.0.u.Z.0.u.`.M.O. +0..+++@+t.#+$+0.p r 3.%+&+*+s z =+      ",
"        i.-+t a ;+x.E.>+0.,+'+F.G.)+I.I.'+!+0.F.`.~+~+{+O.~+++]+^+/+G.0.,.Q.r r p (+O _+:+.     ",
"      <+[+n }+..r #.,+|+0.1+'+F.)+`.I.2+,+3+W.w.3+3+3+{+4+3+++`.3+3+^+0.5+O.'.r d.6+7+T.8+9+    ",
"    0+a+b+c+d+r d.e+)+I.++`./+'+`.3+f+g+`.`.h+i+3+3+3+)+j+3+k+`.3+3+)+u.l+m+0.#.0.r %+b+%+n+    ",
"  & o+[ p+q+a.'.'.N.3+f+2+3+3+r+`.3+3+3+3+3+s+t+3+3+3+3+3+3+3+3+3+3+`.X.3+3+N.!+>+4.u+v+w+m &   ",
"  & 2 x+y+r 0.0.'+)+3+3+3+3+3+3+3+3+3+3+3+3+3+3+3+3+3+3+3+3+3+3+3+3+3+3+3+3+)+z+p _.4.` A+W     ",
"    B+e.a M 6.C+h+)+3+3+3+3+3+3+3+3+3+3+3+3+3+3+3+3+3+3+3+3+3+3+3+3+3+3+3+3+2+Q.Q.4.D+E+.       ",
"      F+G+a r H+s+3+3+3+3+3+3+3+3+3+3+3+3+3+3+3+3+3+3+3+3+3+3+3+3+3+3+3+3+3+I+0.0.].J+K+        ",
"    L+:+;.M+r _.g+3+3+3+3+3+3+3+3+3+3+3+3+3+3+3+3+3+3+3+3+3+3+3+3+3+3+3+3+3+'+N+O+P+Q+          ",
"    1.R+S+p p.T+U+)+3+3+3+3+3+3+3+3+3+3+3+3+3+3+3+3+3+3+3+3+3+3+3+3+3+3+3+3+V+M.W+>.X+          ",
"    A.Y+Z+`+5. @^+3+3+3+3+3+3+3+3+3+3+3+3+3+3+3+3+3+3+3+3+3+3+3+3+3+3+3+3+3+)+.@r +@> 1.&       ",
"      @@~ #@$@%@'+)+3+3+3+3+3+3+3+3+3+3+3+3+3+3+3+3+3+3+3+3+3+3+3+3+3+3+3+3+&@g '.*@=@:+-@&     ",
"      ;@' 7 >@f+,@i+3+3+3+3+3+3+3+3+3+3+3+3+3+3+3+3+3+3+3+3+3+3+3+3+3+3+3+3+'@{.{.b+Z+v )@_     ",
"        !@@.~@{@`.`.3+3+3+3+3+3+3+3+3+3+3+3+3+3+3+3+3+3+3+3+3+3+3+3+3+3+3+3+u.a.>+]@^@$./@% &   ",
"          (@p _@l+3+3+3+3+3+3+3+3+3+3+3+3+3+3+3+3+3+3+3+3+3+3+3+3+3+3+3+3+2+0.d.7.p.y.:@n <@>   ",
"          [@}@|@1@3+3+3+3+3+3+3+3+3+3+3+3+3+3+3+3+3+3+3+3+3+3+3+3+3+3+3+3+V+I.'.'.6.7.2@T.#@(   ",
"        3@4@5@K 6@)+3+3+3+3+3+3+3+3+3+3+3+3+3+3+3+3+3+3+3+3+3+3+3+3+3+3+3+V+7@'+8@p ].r @.9@0@V ",
"      <+a@b@c@K d@!+3+3+3+3+3+3+3+3+3+3+3+3+3+3+3+3+3+3+3+3+3+3+3+3+3+3+3+N+1+,@e@d.'.p ).f@g@h@",
"        i@p #@d.d.I+3+3+3+3+3+3+3+3+3+3+3+3+3+3+3+3+3+3+3+3+3+3+3+3+3+3+3+3+3+j@h+0.|+Q.>+6 k@=@",
"          l@r d.m@F.3+3+3+3+3+3+3+3+3+3+3+3+3+3+3+3+3+3+3+3+3+3+3+3+3+3+3+3+3+n@0.0.0.o@O 7 p@q@",
"    L+h.-@r@6._.s@t@3+3+3+3+3+3+3+3+3+3+3+3+3+3+3+3+3+3+3+3+3+3+3+3+3+3+3+3+`.u@0.u@d.r v@:@w@  ",
"  & - x@y@;.z@_.t.w.3+3+3+3+3+3+3+3+3+3+3+3+3+3+3+3+3+3+3+3+3+3+3+3+3+3+3+3+`.X.A@B@r r p C@D@  ",
"  & E@7 F@*@m._.5+)+3+3+3+3+3+3+3+3+3+3+3+3+3+3+3+3+3+3+3+3+3+3+3+3+3+3+3+3+3+3+t.6.4.u v@G@&   ",
"  & =.j I r H@0.0.w.3+3+3+3+3+3+3+3+3+3+3+3+3+3+3+3+3+3+3+3+3+3+3+3+3+3+3+3+3+3+e@].d+I@< 7 &   ",
"    J@K@q ;.o@8@0.I+3+3+3+3+3+3+3+3+3+3+3+3+3+3+3+3+3+3+3+3+3+3+3+3+3+3+3+3+`.L@0.6.7.$.M@N@    ",
"      & O@P@x.8@0.u.3+3+3+3+3+3+3+3+3+3+3+3+3+3+3+3+3+3+3+3+3+3+3+3+3+3+3+3+Q@].R@;+S@$.T@      ",
"          U@V@Q.'+X.3+3+3+3+3+3+3+3+3+3+3+3+3+3+3+3+3+3+3+3+3+3+3+3+3+3+3+3+j@W@].q X@Y@        ",
"            Z@r 7.`@3+3+3+3+3+3+3+3+3+3+3+3+3+3+3+3+3+3+3+3+3+3+3+3+3+3+3+3+ #0._..#+#          ",
"              E @###)+3+3+3+3+3+3+3+3+3+3+3+3+3+3+3+3+3+3+3+3+3+3+3+3+3+3+3+N.F.V.$#%#          ",
"                  j.&#3+3+3+3+3+3+3+3+3+3+3+3+3+3+3+3+3+3+3+3+3+3+3+3+3+3+3+*#*@K 7 =#&         ",
"                & 3@-#*#3+3+3+3+3+3+3+3+3+3+3+3+3+;#;#;#>#3+3+3+3+3+3+3+3+>#,#K '#)#&           ",
"                & !#s ~#{#3+3+3+]#^#/#(#_#3+)+:#<#[#>.}#|#1#2#3#)+3+3+)+;#4#5#6#=#&             ",
"                  . 7#8#9#0#a#b#|@c#d#v+e#f#g#|@h#i#- j#k#l#m#n#S o#p#r [.q#r#- &               ",
"                        s#I@t#u#v#%#w#x#y#z#A#B#C#K+      & 3@D#E#F#G#G+;.A H#.                 ",
"                          I#J#        + +#+#+#<+            K#L#+     M#M#N#O#                  ",
"                                                                          L+                    ",
"                                                                                                ",
"                                                                                                ",
"                                                                                                "};
