/* XPM */
static char * hero_left_xpm[] = {
"48 50 352 2",
"  	c None",
". 	c #423040",
"+ 	c #9F4B47",
"@ 	c #E06C5D",
"# 	c #E87060",
"$ 	c #E97060",
"% 	c #DF6C5E",
"& 	c #794247",
"* 	c #493240",
"= 	c #9D4B48",
"- 	c #E46E5F",
"; 	c #A74D48",
"> 	c #593541",
", 	c #4D3240",
"' 	c #9D4C49",
") 	c #DE6A5C",
"! 	c #E76F60",
"~ 	c #C55C51",
"{ 	c #9D4946",
"] 	c #663842",
"^ 	c #403040",
"/ 	c #5C3641",
"( 	c #CA5E52",
"_ 	c #E97160",
": 	c #E66F5F",
"< 	c #C95E52",
"[ 	c #783D43",
"} 	c #473140",
"| 	c #A44C47",
"1 	c #C85E52",
"2 	c #D56658",
"3 	c #A84D47",
"4 	c #633842",
"5 	c #483342",
"6 	c #AF676D",
"7 	c #C86B69",
"8 	c #E9705F",
"9 	c #D56558",
"0 	c #AF4F47",
"a 	c #AC4F48",
"b 	c #392436",
"c 	c #40455D",
"d 	c #B395AD",
"e 	c #CA9FB0",
"f 	c #E98A85",
"g 	c #AE4F48",
"h 	c #2B0626",
"i 	c #9D9AA7",
"j 	c #BFC2D3",
"k 	c #B0534C",
"l 	c #C8A3AB",
"m 	c #D5A8AF",
"n 	c #E46D5D",
"o 	c #D66658",
"p 	c #7A7581",
"q 	c #D9D8E7",
"r 	c #E2E2F2",
"s 	c #E7E5F5",
"t 	c #B25A55",
"u 	c #C9A3AB",
"v 	c #BA554B",
"w 	c #E56F5F",
"x 	c #B6534A",
"y 	c #B05048",
"z 	c #504552",
"A 	c #E8E8F8",
"B 	c #B36F76",
"C 	c #C6A1AC",
"D 	c #C599A0",
"E 	c #B04F47",
"F 	c #BA564C",
"G 	c #E16C5D",
"H 	c #DF6B5C",
"I 	c #B45249",
"J 	c #E5E5F5",
"K 	c #E7E6F6",
"L 	c #B89AB2",
"M 	c #B38091",
"N 	c #AF4C41",
"O 	c #AF4F48",
"P 	c #E6E6F6",
"Q 	c #E6E5F5",
"R 	c #9E4448",
"S 	c #B14F45",
"T 	c #AF5048",
"U 	c #847F8F",
"V 	c #D0CCE3",
"W 	c #E7E7F7",
"X 	c #D1C7D7",
"Y 	c #9C3D44",
"Z 	c #703B42",
"` 	c #42303F",
" .	c #7F768D",
"..	c #B6AFCD",
"+.	c #BAB2D2",
"@.	c #BAB2D1",
"#.	c #AA94B1",
"$.	c #A14C53",
"%.	c #AD4F48",
"&.	c #7B4041",
"*.	c #503122",
"=.	c #50301A",
"-.	c #867E96",
";.	c #9991AC",
">.	c #9891AC",
",.	c #9993AE",
"'.	c #816579",
").	c #8D4040",
"!.	c #924645",
"~.	c #924646",
"{.	c #934646",
"].	c #924545",
"^.	c #814241",
"/.	c #7C4A2E",
"(.	c #5C371B",
"_.	c #503018",
":.	c #653639",
"<.	c #653539",
"[.	c #563839",
"}.	c #313E3B",
"|.	c #756F87",
"1.	c #653B41",
"2.	c #653A40",
"3.	c #543434",
"4.	c #472F2B",
"5.	c #472F2C",
"6.	c #462F2B",
"7.	c #6C4231",
"8.	c #714532",
"9.	c #7B4A2F",
"0.	c #8A5128",
"a.	c #784040",
"b.	c #794141",
"c.	c #653937",
"d.	c #000901",
"e.	c #8D85A3",
"f.	c #907F9A",
"g.	c #783E3D",
"h.	c #62372C",
"i.	c #5D381C",
"j.	c #774928",
"k.	c #51321B",
"l.	c #814C26",
"m.	c #885028",
"n.	c #6F4120",
"o.	c #523119",
"p.	c #9C6855",
"q.	c #AE8060",
"r.	c #000000",
"s.	c #9B96B0",
"t.	c #A49AB2",
"u.	c #8E5749",
"v.	c #6C4333",
"w.	c #523219",
"x.	c #A26E4A",
"y.	c #D8A078",
"z.	c #A27556",
"A.	c #7F4C29",
"B.	c #874F28",
"C.	c #724325",
"D.	c #4D3022",
"E.	c #7B4442",
"F.	c #D69E76",
"G.	c #AD7F5E",
"H.	c #D7D8E6",
"I.	c #ECD8D8",
"J.	c #DAA075",
"K.	c #956A4C",
"L.	c #90674A",
"M.	c #D79F78",
"N.	c #DAA279",
"O.	c #765137",
"P.	c #794723",
"Q.	c #875028",
"R.	c #724321",
"S.	c #482F2C",
"T.	c #3F3041",
"U.	c #BE896A",
"V.	c #EBBEA2",
"W.	c #E0B79E",
"X.	c #C8A793",
"Y.	c #ECD2CA",
"Z.	c #F6CDB5",
"`.	c #EDC1A5",
" +	c #CC9E80",
".+	c #D49D75",
"++	c #D9A179",
"@+	c #755037",
"#+	c #5A361B",
"$+	c #895028",
"%+	c #513118",
"&+	c #4D3023",
"*+	c #D9A27B",
"=+	c #F5CCB4",
"-+	c #F8CFB7",
";+	c #F8D0B8",
">+	c #EEC2A6",
",+	c #DAA37C",
"'+	c #D69E77",
")+	c #775136",
"!+	c #643B1E",
"~+	c #936153",
"{+	c #D9A98C",
"]+	c #F3CCB4",
"^+	c #F0C4A9",
"/+	c #D19A73",
"(+	c #7A543A",
"_+	c #C7936E",
":+	c #CB9670",
"<+	c #91684A",
"[+	c #804C26",
"}+	c #864F27",
"|+	c #7D4924",
"1+	c #7E4924",
"2+	c #5A351A",
"3+	c #713438",
"4+	c #B78E7F",
"5+	c #D3AB98",
"6+	c #BC8768",
"7+	c #8B5D48",
"8+	c #512F1A",
"9+	c #4B2B13",
"0+	c #4B2B12",
"a+	c #4D2E16",
"b+	c #764920",
"c+	c #806100",
"d+	c #553D06",
"e+	c #3A2110",
"f+	c #753B3C",
"g+	c #74393B",
"h+	c #753C3D",
"i+	c #743838",
"j+	c #763B3A",
"k+	c #6B372F",
"l+	c #4D2C19",
"m+	c #4D2D18",
"n+	c #AB810A",
"o+	c #CB9A00",
"p+	c #B78A07",
"q+	c #583C10",
"r+	c #8E5165",
"s+	c #AFA5C2",
"t+	c #ADA2BF",
"u+	c #AEA1BC",
"v+	c #B98D26",
"w+	c #A77917",
"x+	c #A67818",
"y+	c #BB8E05",
"z+	c #C89800",
"A+	c #BC8E05",
"B+	c #593817",
"C+	c #975165",
"D+	c #8F8BA3",
"E+	c #3E4446",
"F+	c #42474A",
"G+	c #64573B",
"H+	c #A87C20",
"I+	c #7D4A28",
"J+	c #BF8F09",
"K+	c #BF8F0A",
"L+	c #5F3B1A",
"M+	c #492B15",
"N+	c #B23030",
"O+	c #000B0D",
"P+	c #2B3A3C",
"Q+	c #2B393B",
"R+	c #373F40",
"S+	c #333F41",
"T+	c #051E26",
"U+	c #BA8D00",
"V+	c #C99900",
"W+	c #BC8C0F",
"X+	c #8E5826",
"Y+	c #7C4825",
"Z+	c #1E0909",
"`+	c #905A53",
" @	c #CBAB97",
".@	c #CCAC99",
"+@	c #C9AA97",
"@@	c #444745",
"#@	c #394141",
"$@	c #172225",
"%@	c #98691B",
"&@	c #A4721E",
"*@	c #905B26",
"=@	c #AD7C1A",
"-@	c #A67813",
";@	c #050606",
">@	c #766960",
",@	c #F9D0B8",
"'@	c #F7CFB7",
")@	c #F4CCB4",
"!@	c #4A4B48",
"~@	c #384040",
"{@	c #353D3D",
"]@	c #3B261A",
"^@	c #885227",
"/@	c #A16F20",
"(@	c #C0900A",
"_@	c #C59503",
":@	c #B78B02",
"<@	c #040505",
"[@	c #625247",
"}@	c #D19D77",
"|@	c #DAA27B",
"1@	c #CA9774",
"2@	c #444542",
"3@	c #2B2416",
"4@	c #C49402",
"5@	c #C79701",
"6@	c #C49306",
"7@	c #956024",
"8@	c #784820",
"9@	c #030404",
"0@	c #1D2526",
"a@	c #756159",
"b@	c #B59080",
"c@	c #595D67",
"d@	c #3B5263",
"e@	c #3C5364",
"f@	c #2D2B27",
"g@	c #C79700",
"h@	c #CA9A00",
"i@	c #A5721F",
"j@	c #704020",
"k@	c #0A0301",
"l@	c #333B3B",
"m@	c #002031",
"n@	c #275B7A",
"o@	c #3A698A",
"p@	c #3B698A",
"q@	c #3C698A",
"r@	c #3F6A8B",
"s@	c #202D39",
"t@	c #7E5E00",
"u@	c #806000",
"v@	c #684710",
"w@	c #4F1D1D",
"x@	c #B33333",
"y@	c #B23D44",
"z@	c #B3434C",
"A@	c #A23F4E",
"B@	c #803952",
"C@	c #35131F",
"D@	c #5D9265",
"E@	c #6EAA77",
"F@	c #521313",
"G@	c #B23333",
"H@	c #B13333",
"I@	c #A02E36",
"J@	c #7D243B",
"K@	c #380B16",
"                                                                                                ",
"                                                                                                ",
"                                                                                                ",
"                                                                                                ",
"                                                                                                ",
"                                                                                                ",
"                                                                                                ",
"                                                                                                ",
"                                                                                                ",
"                                        . . . . . . . . . . .                                   ",
"                                    . + @ # # # # # # # # $ % & *                               ",
"                                  * = @ # # # # # # # # # # # - ; >                             ",
"                                , ' ) # # # # # # # # # # # # ! ~ { ]                           ",
"                              ^ / ( _ # # # # # # # # # # # # # : < [                           ",
"                              } | 1 $ # # # # # # # # # # # # # # 2 3 4                         ",
"                              5 6 7 8 # # # # # # # # # # # # # # 9 0 a *                       ",
"                            b c d e f # # # # # # # # # # # # # # 9 0 g *                       ",
"                          h i j k l m n # # # # # # # # # # # # # o 0 g *                       ",
"                        p q r s t u l v w # # # # # # # # # # # @ x y g *                       ",
"                      z r A A s B C D E F G @ @ @ @ @ @ @ @ @ H I y y g *                       ",
"                      z J A A K L M N y y O O O O O O O O O O O y y y g *                       ",
"                      z P A A Q R S y y y y y y y y y y y y y y y y y T *                       ",
"                        U V W P X Y y y y y y y y y y y y y y y y y y Z `                       ",
"                           ...+.@.#.$.O y y y y y y y y y y y y y %.&.*.=.                      ",
"                            -.;.>.,.'.).!.!.!.~.~.~.{.!.].].].].].^./.(._.                      ",
"                            :.<.<.[.}.|.1.2.3.4.5.6.6.7.8.8.8.8.8.9.0.(.                        ",
"                              a.b.c.d.e.f.g.h._.i.j.k.l.m.m.m.m.m.m.n.o.                        ",
"                              b.p.q.r.s.t.u.v.w.x.y.z.A.m.m.m.m.B.C.D.                          ",
"                              E.F.G.r.H.I.J.K.L.M.y.N.O.P.m.m.Q.R.S.T.                          ",
"                              U.V.W.X.Y.Z.`. +.+y.y.++@+#+$+m.Q.%+&+                            ",
"                              *+=+-+;+;+;+>+,+'+y.y.y.)+l.m.$+!+_.                              ",
"                                ~+{+]+;+^+++/+(+_+:+<+[+}+|+1+2+                                ",
"                                  3+4+5+6+6+7+8+9+0+a+R.b+c+d+e+                                ",
"                                    f+g+h+i+j+k+l+m+m+_.n+o+p+q+                                ",
"                                        r+s+t+u+v+w+x+y+z+z+z+A+B+                              ",
"                                        C+D+E+F+G+H+I+J+z+z+z+K+L+M+                            ",
"                                        N+O+P+Q+R+S+T+U+V+V+W+X+Y+r.                            ",
"                                      Z+`+ @.@+@@@#@$@%@&@&@*@=@-@r.                            ",
"                                      ;@>@,@'@)@!@~@{@]@^@/@(@_@:@r.                            ",
"                                      <@[@}@|@1@2@~@~@3@4@5@6@7@8@r.                            ",
"                                      9@0@a@b@c@d@d@e@f@g@h@i@j@k@                              ",
"                                        l@m@n@o@p@q@r@s@t@u@v@                                  ",
"                                        w@x@y@z@z@A@B@C@D@D@E@                                  ",
"                                      E@F@G@H@H@H@I@J@K@D@D@D@E@                                ",
"                                      E@D@r.r.r.r.r.r.D@D@D@D@E@                                ",
"                                      E@D@D@D@D@D@D@D@D@D@D@D@E@                                ",
"                                      E@D@D@D@D@D@D@D@D@D@D@D@E@                                ",
"                                        E@D@D@D@D@D@D@D@D@D@E@                                  ",
"                                          E@D@D@D@D@D@D@D@E@                                    ",
"                                            E@E@E@E@E@E@E@                                      "};
