/* XPM */
static char * hero_right_xpm[] = {
"48 50 351 2",
"  	c None",
". 	c #593541",
"+ 	c #493240",
"@ 	c #DF6C5E",
"# 	c #E97060",
"$ 	c #E87060",
"% 	c #E06C5D",
"& 	c #9F4B47",
"* 	c #423040",
"= 	c #A74D48",
"- 	c #E46E5F",
"; 	c #9D4B48",
"> 	c #663842",
", 	c #9D4946",
"' 	c #C55C51",
") 	c #E76F60",
"! 	c #DE6A5C",
"~ 	c #9D4C49",
"{ 	c #4D3240",
"] 	c #783D43",
"^ 	c #C95E52",
"/ 	c #E66F5F",
"( 	c #E97160",
"_ 	c #CA5E52",
": 	c #5C3641",
"< 	c #403040",
"[ 	c #633842",
"} 	c #A84D47",
"| 	c #D56658",
"1 	c #C85E52",
"2 	c #A44C47",
"3 	c #473140",
"4 	c #AC4F48",
"5 	c #AF4F47",
"6 	c #D56558",
"7 	c #E9705F",
"8 	c #C86B69",
"9 	c #AF676D",
"0 	c #483342",
"a 	c #AE4F48",
"b 	c #E98A85",
"c 	c #CA9FB0",
"d 	c #B395AD",
"e 	c #40455D",
"f 	c #392436",
"g 	c #D66658",
"h 	c #E46D5D",
"i 	c #D5A8AF",
"j 	c #C8A3AB",
"k 	c #B0534C",
"l 	c #BFC2D3",
"m 	c #9D9AA7",
"n 	c #2B0626",
"o 	c #B05048",
"p 	c #B6534A",
"q 	c #E56F5F",
"r 	c #BA554B",
"s 	c #C9A3AB",
"t 	c #B25A55",
"u 	c #E7E5F5",
"v 	c #E2E2F2",
"w 	c #D9D8E7",
"x 	c #7A7581",
"y 	c #B45249",
"z 	c #DF6B5C",
"A 	c #E16C5D",
"B 	c #BA564C",
"C 	c #B04F47",
"D 	c #C599A0",
"E 	c #C6A1AC",
"F 	c #B36F76",
"G 	c #E8E8F8",
"H 	c #504552",
"I 	c #AF4F48",
"J 	c #AF4C41",
"K 	c #B38091",
"L 	c #B89AB2",
"M 	c #E7E6F6",
"N 	c #E5E5F5",
"O 	c #AF5048",
"P 	c #B14F45",
"Q 	c #9E4448",
"R 	c #E6E5F5",
"S 	c #E6E6F6",
"T 	c #42303F",
"U 	c #703B42",
"V 	c #9C3D44",
"W 	c #D1C7D7",
"X 	c #E7E7F7",
"Y 	c #D0CCE3",
"Z 	c #847F8F",
"` 	c #50301A",
" .	c #503122",
"..	c #7B4041",
"+.	c #AD4F48",
"@.	c #A14C53",
"#.	c #AA94B1",
"$.	c #BAB2D1",
"%.	c #BAB2D2",
"&.	c #B6AFCD",
"*.	c #7F768D",
"=.	c #503018",
"-.	c #5C371B",
";.	c #7C4A2E",
">.	c #814241",
",.	c #924545",
"'.	c #924645",
").	c #934646",
"!.	c #924646",
"~.	c #8D4040",
"{.	c #816579",
"].	c #9993AE",
"^.	c #9891AC",
"/.	c #9991AC",
"(.	c #867E96",
"_.	c #8A5128",
":.	c #7B4A2F",
"<.	c #714532",
"[.	c #6C4231",
"}.	c #462F2B",
"|.	c #472F2C",
"1.	c #472F2B",
"2.	c #543434",
"3.	c #653A40",
"4.	c #653B41",
"5.	c #756F87",
"6.	c #313E3B",
"7.	c #563839",
"8.	c #653539",
"9.	c #653639",
"0.	c #523119",
"a.	c #6F4120",
"b.	c #885028",
"c.	c #814C26",
"d.	c #51321B",
"e.	c #774928",
"f.	c #5D381C",
"g.	c #62372C",
"h.	c #783E3D",
"i.	c #907F9A",
"j.	c #8D85A3",
"k.	c #000901",
"l.	c #653937",
"m.	c #794141",
"n.	c #784040",
"o.	c #4D3022",
"p.	c #724325",
"q.	c #874F28",
"r.	c #7F4C29",
"s.	c #A27556",
"t.	c #D8A078",
"u.	c #A26E4A",
"v.	c #523219",
"w.	c #6C4333",
"x.	c #8E5749",
"y.	c #A49AB2",
"z.	c #9B96B0",
"A.	c #000000",
"B.	c #AE8060",
"C.	c #9C6855",
"D.	c #3F3041",
"E.	c #482F2C",
"F.	c #724321",
"G.	c #875028",
"H.	c #794723",
"I.	c #765137",
"J.	c #DAA279",
"K.	c #D79F78",
"L.	c #90674A",
"M.	c #956A4C",
"N.	c #DAA075",
"O.	c #ECD8D8",
"P.	c #D7D8E6",
"Q.	c #AD7F5E",
"R.	c #D69E76",
"S.	c #7B4442",
"T.	c #4D3023",
"U.	c #513118",
"V.	c #895028",
"W.	c #5A361B",
"X.	c #755037",
"Y.	c #D9A179",
"Z.	c #D49D75",
"`.	c #CC9E80",
" +	c #EDC1A5",
".+	c #F6CDB5",
"++	c #ECD2CA",
"@+	c #C8A793",
"#+	c #E0B79E",
"$+	c #EBBEA2",
"%+	c #BE896A",
"&+	c #643B1E",
"*+	c #775136",
"=+	c #D69E77",
"-+	c #DAA37C",
";+	c #EEC2A6",
">+	c #F8D0B8",
",+	c #F8CFB7",
"'+	c #F5CCB4",
")+	c #D9A27B",
"!+	c #5A351A",
"~+	c #7E4924",
"{+	c #7D4924",
"]+	c #864F27",
"^+	c #804C26",
"/+	c #91684A",
"(+	c #CB9670",
"_+	c #C7936E",
":+	c #7A543A",
"<+	c #D19A73",
"[+	c #F0C4A9",
"}+	c #F3CCB4",
"|+	c #D9A98C",
"1+	c #936153",
"2+	c #3A2110",
"3+	c #553D06",
"4+	c #806100",
"5+	c #764920",
"6+	c #4D2E16",
"7+	c #4B2B12",
"8+	c #4B2B13",
"9+	c #512F1A",
"0+	c #8B5D48",
"a+	c #BC8768",
"b+	c #D3AB98",
"c+	c #B78E7F",
"d+	c #713438",
"e+	c #583C10",
"f+	c #B78A07",
"g+	c #CB9A00",
"h+	c #AB810A",
"i+	c #4D2D18",
"j+	c #4D2C19",
"k+	c #6B372F",
"l+	c #763B3A",
"m+	c #743838",
"n+	c #753C3D",
"o+	c #74393B",
"p+	c #753B3C",
"q+	c #593817",
"r+	c #BC8E05",
"s+	c #C89800",
"t+	c #BB8E05",
"u+	c #A67818",
"v+	c #A77917",
"w+	c #B98D26",
"x+	c #AEA1BC",
"y+	c #ADA2BF",
"z+	c #AFA5C2",
"A+	c #8E5165",
"B+	c #492B15",
"C+	c #5F3B1A",
"D+	c #BF8F0A",
"E+	c #BF8F09",
"F+	c #7D4A28",
"G+	c #A87C20",
"H+	c #64573B",
"I+	c #42474A",
"J+	c #3E4446",
"K+	c #8F8BA3",
"L+	c #975165",
"M+	c #7C4825",
"N+	c #8E5826",
"O+	c #BC8C0F",
"P+	c #C99900",
"Q+	c #BA8D00",
"R+	c #051E26",
"S+	c #333F41",
"T+	c #373F40",
"U+	c #2B393B",
"V+	c #2B3A3C",
"W+	c #000B0D",
"X+	c #B23030",
"Y+	c #A67813",
"Z+	c #AD7C1A",
"`+	c #905B26",
" @	c #A4721E",
".@	c #98691B",
"+@	c #172225",
"@@	c #394141",
"#@	c #444745",
"$@	c #C9AA97",
"%@	c #CCAC99",
"&@	c #CBAB97",
"*@	c #905A53",
"=@	c #1E0909",
"-@	c #B78B02",
";@	c #C59503",
">@	c #C0900A",
",@	c #A16F20",
"'@	c #885227",
")@	c #3B261A",
"!@	c #353D3D",
"~@	c #384040",
"{@	c #4A4B48",
"]@	c #F4CCB4",
"^@	c #F7CFB7",
"/@	c #F9D0B8",
"(@	c #766960",
"_@	c #050606",
":@	c #784820",
"<@	c #956024",
"[@	c #C49306",
"}@	c #C79701",
"|@	c #C49402",
"1@	c #2B2416",
"2@	c #444542",
"3@	c #CA9774",
"4@	c #DAA27B",
"5@	c #D19D77",
"6@	c #625247",
"7@	c #040505",
"8@	c #0A0301",
"9@	c #704020",
"0@	c #A5721F",
"a@	c #CA9A00",
"b@	c #C79700",
"c@	c #2D2B27",
"d@	c #3C5364",
"e@	c #3B5263",
"f@	c #595D67",
"g@	c #B59080",
"h@	c #756159",
"i@	c #1D2526",
"j@	c #030404",
"k@	c #684710",
"l@	c #806000",
"m@	c #7E5E00",
"n@	c #202D39",
"o@	c #3F6A8B",
"p@	c #3C698A",
"q@	c #3B698A",
"r@	c #3A698A",
"s@	c #275B7A",
"t@	c #002031",
"u@	c #333B3B",
"v@	c #6EAA77",
"w@	c #5D9265",
"x@	c #35131F",
"y@	c #803952",
"z@	c #A23F4E",
"A@	c #B3434C",
"B@	c #B23D44",
"C@	c #B33333",
"D@	c #4F1D1D",
"E@	c #380B16",
"F@	c #7D243B",
"G@	c #A02E36",
"H@	c #B13333",
"I@	c #B23333",
"J@	c #521313",
"                                                                                                ",
"                                                                                                ",
"                                                                                                ",
"                                                                                                ",
"                                                                                                ",
"                                                                                                ",
"                                                                                                ",
"                                                                                                ",
"                                                                                                ",
"                                  . . . . . . . . . . .                                         ",
"                              + . @ # $ $ $ $ $ $ $ $ % & *                                     ",
"                            . = - $ $ $ $ $ $ $ $ $ $ $ % ; +                                   ",
"                          > , ' ) $ $ $ $ $ $ $ $ $ $ $ $ ! ~ {                                 ",
"                          ] ^ / $ $ $ $ $ $ $ $ $ $ $ $ $ ( _ : <                               ",
"                        [ } | $ $ $ $ $ $ $ $ $ $ $ $ $ $ # 1 2 3                               ",
"                      + 4 5 6 $ $ $ $ $ $ $ $ $ $ $ $ $ $ 7 8 9 0                               ",
"                      + a 5 6 $ $ $ $ $ $ $ $ $ $ $ $ $ $ b c d e f                             ",
"                      + a 5 g $ $ $ $ $ $ $ $ $ $ $ $ $ h i j k l m n                           ",
"                      + a o p % $ $ $ $ $ $ $ $ $ $ $ q r j s t u v w x                         ",
"                      + a o o y z % % % % % % % % % A B C D E F u G G v H                       ",
"                      + a o o o I I I I I I I I I I I o o J K L M G G N H                       ",
"                      + O o o o o o o o o o o o o o o o o o P Q R G G S H                       ",
"                      T U o o o o o o o o o o o o o o o o o V W S X Y Z                         ",
"                      `  ...+.o o o o o o o o o o o o o I @.#.$.%.&.*.                          ",
"                      =.-.;.>.,.,.,.,.,.'.).!.!.!.'.'.'.~.{.].^./.(.                            ",
"                        -._.:.<.<.<.<.<.[.}.}.|.1.2.3.4.5.6.7.8.8.9.                            ",
"                        0.a.b.b.b.b.b.b.c.d.e.f.=.g.h.i.j.k.l.m.n.                              ",
"                          o.p.q.b.b.b.b.r.s.t.u.v.w.x.y.z.A.B.C.m.                              ",
"                          D.E.F.G.b.b.H.I.J.t.K.L.M.N.O.P.A.Q.R.S.                              ",
"                            T.U.G.b.V.W.X.Y.t.t.Z.`. +.+++@+#+$+%+                              ",
"                              =.&+V.b.c.*+t.t.t.=+-+;+>+>+>+,+'+)+                              ",
"                                !+~+{+]+^+/+(+_+:+<+Y.[+>+}+|+1+                                ",
"                                2+3+4+5+F.6+7+8+9+0+a+a+b+c+d+                                  ",
"                                e+f+g+h+=.i+i+j+k+l+m+n+o+p+                                    ",
"                              q+r+s+s+s+t+u+v+w+x+y+z+A+                                        ",
"                            B+C+D+s+s+s+E+F+G+H+I+J+K+L+                                        ",
"                            A.M+N+O+P+P+Q+R+S+T+U+V+W+X+                                        ",
"                            A.Y+Z+`+ @ @.@+@@@#@$@%@&@*@=@                                      ",
"                            A.-@;@>@,@'@)@!@~@{@]@^@/@(@_@                                      ",
"                            A.:@<@[@}@|@1@~@~@2@3@4@5@6@7@                                      ",
"                              8@9@0@a@b@c@d@e@e@f@g@h@i@j@                                      ",
"                                  k@l@m@n@o@p@q@r@s@t@u@                                        ",
"                                  v@w@w@x@y@z@A@A@B@C@D@                                        ",
"                                v@w@w@w@E@F@G@H@H@H@I@J@v@                                      ",
"                                v@w@w@w@w@A.A.A.A.A.A.w@v@                                      ",
"                                v@w@w@w@w@w@w@w@w@w@w@w@v@                                      ",
"                                v@w@w@w@w@w@w@w@w@w@w@w@v@                                      ",
"                                  v@w@w@w@w@w@w@w@w@w@v@                                        ",
"                                    v@w@w@w@w@w@w@w@v@                                          ",
"                                      v@v@v@v@v@v@v@                                            "};
