/* XPM */
static char * herbe_xpm[] = {
"48 50 3 1",
" 	c #D3F6C3",
".	c #C7F3AA",
"+	c #BDED94",
" . ....+..++.... . ....+. . ....+..++.... . ....",
".  . +..+..... ..  . +....  . +..+..... ..  . +.",
"+ .. . .+.. . ..+ .. . ..+ .. . .+.. . ..+ .. . ",
"..+ .  +..+ ......+ .  +...+ .  +..+ ......+ .  ",
". . +.++.++.+   . . +.++ . . +.++.++.+   . . +.+",
"  .+....+.+..  .  .+.....  .+....+.+..  .  .+...",
" + +. .. ...     + +. ..  + +. .. ...     + +. .",
"+++.......+. .  +++..... +++.......+. .  +++....",
"++. .    ...+. +++. .   +++. .    ...+. +++. .  ",
".++.      .. ++..++.    ..++.      .. ++..++.   ",
".+.+   .    .. +.+.+   .+.+.+   .    .. +.+.+   ",
".... + . .   ....... + ...... + . .   ....... + ",
"......++ .   .+.......++.......++ .   .+.......+",
"+..+.. ......++.+..+.. ..+..+.. ......++.+..+.. ",
".++.+ .  +++.+.+.++.+ . +.++.+ .  +++.+.+.++.+ .",
"....+... +.+.+.+....+.. +....+... +.+.+.+....+..",
" . ....+..+++. . . ....+. . ....+..+++. . . ....",
".  . ..++..... ..  . ..+..  . ..++..... ..  . ..",
"+ .. . .... . ..+ .. . ..+ .. . .... . ..+ .. . ",
"..+ . .+..+ ......+ .. +...+ . .+..+ ......+ .. ",
". . +.+..++.+   . . +.+. . . +.+..++.+   . . +.+",
"  .+...++..+.  .   +...+.  .+...++..+.  .   +...",
" + +. .  +..     + +. .   + +. .  +..     + +. .",
"+++......... .  +++..... +++......... .  +++....",
"++. . .  ...+. +++. . . +++. . .  ...+. +++. . .",
" . ....+..++.... . ....+. . ....+..++.... . ....",
".  . +..+..... ..  . +....  . +..+..... ..  . +.",
"+ .. . .+.. . ..+ .. . ..+ .. . .+.. . ..+ .. . ",
"..+ .  +..+ ......+ .  +...+ .  +..+ ......+ .  ",
". . +.++.++.+   . . +.++ . . +.++.++.+   . . +.+",
"  .+....+.+..  .  .+.....  .+....+.+..  .  .+...",
" + +. .. ...     + +. ..  + +. .. ...     + +. .",
"+++.......+. .  +++..... +++.......+. .  +++....",
"++. .    ...+. +++. .   +++. .    ...+. +++. .  ",
".++.      .. ++..++.    ..++.      .. ++..++.   ",
".+.+   .    .. +.+.+   .+.+.+   .    .. +.+.+   ",
".... + . .   ....... + ...... + . .   ....... + ",
"......++ .   .+.......++.......++ .   .+.......+",
"+..+.. ......++.+..+.. ..+..+.. ......++.+..+.. ",
".++.+ .  +++.+.+.++.+ . +.++.+ .  +++.+.+.++.+ .",
"....+... +.+.+.+....+.. +....+... +.+.+.+....+..",
" . ....+..+++. . . ....+. . ....+..+++. . . ....",
".  . ..++..... ..  . ..+..  . ..++..... ..  . ..",
"+ .. . .... . ..+ .. . ..+ .. . .... . ..+ .. . ",
"..+ . .+..+ ......+ .. +...+ . .+..+ ......+ .. ",
". . +.+..++.+   . . +.+. . . +.+..++.+   . . +.+",
"  .+...++..+.  .   +...+.  .+...++..+.  .   +...",
" + +. .  +..     + +. .   + +. .  +..     + +. .",
"+++......... .  +++..... +++......... .  +++....",
"++. . .  ...+. +++. . . +++. . .  ...+. +++. . ."};
