/* XPM */
static char * herbe_xpm[] = {
"50 50 3 1",
" 	c #C7F3AA",
".	c #D3F6C3",
"+	c #BDED94",
" . .    +  ++    . .    + . .    +  ++    . .    +",
"  .. .+  +     .  .. .+    .. .+  +     .  .. .+  ",
" +.  . . +  . .  +.  . .  +.  . . +  . .  +.  . . ",
"   +. ..+  +.      +. ..+   +. ..+  +.      +. ..+",
". . .+ ++ ++ +... . .+ ++. . .+ ++ ++ +... . .+ ++",
" .. +    + +  .. .. +     .. +    + +  .. .. +    ",
"..+.+ .  .   .....+.+ .  ..+.+ .  .   .....+.+ .  ",
".+++       + . ..+++     .+++       + . ..+++     ",
"+++ . ....   + .+++ . ...+++ . ....   + .+++ . ...",
"  ++ ......  .++  ++ ....  ++ ......  .++  ++ ....",
"+ + +... ....  .+ + +... + + +... ....  .+ + +... ",
"     .+. . ...       .+.      .+. . ...       .+. ",
"       ++. ... +       ++       ++. ... +       ++",
" +  +  .      ++ +  +  .  +  +  .      ++ +  +  . ",
"+ ++ +. ..+++ + + ++ +. .+ ++ +. ..+++ + + ++ +. .",
"+    +   .+ + + +    +  .+    +   .+ + + +    +  .",
" . .    +  +++ . . .    + . .    +  +++ . . .    +",
"  .. .  ++     .  .. .  +  .. .  ++     .  .. .  +",
" +.  . .    . .  +.  . .  +.  . .    . .  +.  . . ",
"   +. . +  +.      +.  .+   +. . +  +.      +.  .+",
". . .+ +  ++ +... . .+ + . . .+ +  ++ +... . .+ + ",
" .. +   ++  + .. ...+   + .. +   ++  + .. ...+   +",
"..+.+ . ..+  .....+.+ . ...+.+ . ..+  .....+.+ . .",
".+++         . ..+++     .+++         . ..+++     ",
"+++ . . ..   + .+++ . . .+++ . . ..   + .+++ . . .",
" . .    +  ++    . .    + . .    +  ++    . .    +",
"  .. .+  +     .  .. .+    .. .+  +     .  .. .+  ",
" +.  . . +  . .  +.  . .  +.  . . +  . .  +.  . . ",
"   +. ..+  +.      +. ..+   +. ..+  +.      +. ..+",
". . .+ ++ ++ +... . .+ ++. . .+ ++ ++ +... . .+ ++",
" .. +    + +  .. .. +     .. +    + +  .. .. +    ",
"..+.+ .  .   .....+.+ .  ..+.+ .  .   .....+.+ .  ",
".+++       + . ..+++     .+++       + . ..+++     ",
"+++ . ....   + .+++ . ...+++ . ....   + .+++ . ...",
"  ++ ......  .++  ++ ....  ++ ......  .++  ++ ....",
"+ + +... ....  .+ + +... + + +... ....  .+ + +... ",
"     .+. . ...       .+.      .+. . ...       .+. ",
"       ++. ... +       ++       ++. ... +       ++",
" +  +  .      ++ +  +  .  +  +  .      ++ +  +  . ",
"+ ++ +. ..+++ + + ++ +. .+ ++ +. ..+++ + + ++ +. .",
"+    +   .+ + + +    +  .+    +   .+ + + +    +  .",
" . .    +  +++ . . .    + . .    +  +++ . . .    +",
"  .. .  ++     .  .. .  +  .. .  ++     .  .. .  +",
" +.  . .    . .  +.  . .  +.  . .    . .  +.  . . ",
"   +. . +  +.      +.  .+   +. . +  +.      +.  .+",
". . .+ +  ++ +... . .+ + . . .+ +  ++ +... . .+ + ",
" .. +   ++  + .. ...+   + .. +   ++  + .. ...+   +",
"..+.+ . ..+  .....+.+ . ...+.+ . ..+  .....+.+ . .",
".+++         . ..+++     .+++         . ..+++     ",
"+++ . . ..   + .+++ . . .+++ . . ..   + .+++ . . ."};
