/* XPM */
static char * pokeball_xpm[] = {
"48 50 136 2",
"  	c None",
". 	c #434B49",
"+ 	c #E7806E",
"@ 	c #E77360",
"# 	c #DF5745",
"$ 	c #DA4634",
"% 	c #D94230",
"& 	c #D5412F",
"* 	c #EF9888",
"= 	c #EE9484",
"- 	c #E46B59",
"; 	c #DC4D3B",
"> 	c #D94431",
", 	c #D94130",
"' 	c #EF9685",
") 	c #F3AB9C",
"! 	c #EE9686",
"~ 	c #E1604E",
"{ 	c #DA4735",
"] 	c #D63E2D",
"^ 	c #E88472",
"/ 	c #F1A494",
"( 	c #F1A596",
"_ 	c #E77A6A",
": 	c #DD503E",
"< 	c #C64233",
"[ 	c #83413B",
"} 	c #754541",
"| 	c #83433D",
"1 	c #C64132",
"2 	c #D33929",
"3 	c #D5402E",
"4 	c #EC8775",
"5 	c #EA8473",
"6 	c #DF5A48",
"7 	c #CB4535",
"8 	c #4D4644",
"9 	c #A9ABAA",
"0 	c #D7D7D7",
"a 	c #B7B9B8",
"b 	c #4F4A47",
"c 	c #96433C",
"d 	c #76413D",
"e 	c #64423F",
"f 	c #3D4544",
"g 	c #646867",
"h 	c #E97C69",
"i 	c #E67260",
"j 	c #E05B49",
"k 	c #DB4836",
"l 	c #90423B",
"m 	c #949695",
"n 	c #F2F3F2",
"o 	c #FEFEFE",
"p 	c #F2F2F2",
"q 	c #B6B8B8",
"r 	c #434C4A",
"s 	c #818483",
"t 	c #878A89",
"u 	c #E36855",
"v 	c #DD5543",
"w 	c #AF453A",
"x 	c #644441",
"y 	c #414A48",
"z 	c #AFB0B0",
"A 	c #F3F4F4",
"B 	c #FFFFFF",
"C 	c #F9F9F9",
"D 	c #CFD0D0",
"E 	c #787B7A",
"F 	c #DCDCDC",
"G 	c #E3E3E3",
"H 	c #CBCBCB",
"I 	c #C04E40",
"J 	c #6E4844",
"K 	c #424B49",
"L 	c #474F4D",
"M 	c #787C7B",
"N 	c #F0F0F0",
"O 	c #F6F6F6",
"P 	c #8B8E8E",
"Q 	c #A5A6A6",
"R 	c #F1F1F1",
"S 	c #F3F3F3",
"T 	c #D3D3D3",
"U 	c #444C4A",
"V 	c #686D6B",
"W 	c #B1B1B1",
"X 	c #D9DADA",
"Y 	c #747877",
"Z 	c #646968",
"` 	c #B0B2B1",
" .	c #7B7E7E",
"..	c #727675",
"+.	c #E4E4E4",
"@.	c #F8F8F8",
"#.	c #CECECE",
"$.	c #4C5251",
"%.	c #9A9B9B",
"&.	c #D6D6D6",
"*.	c #ECECEC",
"=.	c #F5F5F5",
"-.	c #EAEAEA",
";.	c #BABBBB",
">.	c #9D9F9F",
",.	c #B8B9B9",
"'.	c #E6E6E6",
").	c #F7F7F7",
"!.	c #BEBEBE",
"~.	c #A3A3A3",
"{.	c #C1C1C1",
"].	c #E1E1E1",
"^.	c #FDFDFD",
"/.	c #FCFCFC",
"(.	c #FBFBFB",
"_.	c #FAFAFA",
":.	c #EDEDED",
"<.	c #AEAEAE",
"[.	c #B2B2B2",
"}.	c #F4F4F4",
"|.	c #D4D4D4",
"1.	c #B7B7B7",
"2.	c #B0B0B0",
"3.	c #C2C2C2",
"4.	c #E5E5E5",
"5.	c #E9E9E9",
"6.	c #DFDFDF",
"7.	c #CCCCCC",
"8.	c #AAAAAA",
"9.	c #B3B3B3",
"0.	c #BDBDBD",
"a.	c #C5C5C5",
"b.	c #C7C7C7",
"c.	c #B9B9B9",
"d.	c #6EAA77",
"e.	c #5D9265",
"                                                                                                ",
"                                                                                                ",
"                                                                                                ",
"                                                                                                ",
"                                                                                                ",
"                                                                                                ",
"                                                                                                ",
"                                                                                                ",
"                                                                                                ",
"                                                                                                ",
"                                                                                                ",
"                                                                                                ",
"                                                                                                ",
"                                                                                                ",
"                                                                                                ",
"                                                                                                ",
"                                                                                                ",
"                                                                                                ",
"                                                                                                ",
"                                                                                                ",
"                                                                                                ",
"                                                                                                ",
"                                                                                                ",
"                                                                                                ",
"                                                                                                ",
"                                                                                                ",
"                                                                                                ",
"                                                                                                ",
"                                                                                                ",
"                                                                                                ",
"                                          . . . . . .                                           ",
"                                      . + @ # $ % % % & .                                       ",
"                                    . * = - ; > % % % % , .                                     ",
"                                  . ' ) ! ~ { % % % % % % ] .                                   ",
"                                  ^ / ( _ : < [ } | 1 % , 2 3                                   ",
"                                . 4 * 5 6 7 8 9 0 a b c d e f g                                 ",
"                                . h i j k l m n o p q r g s t g                                 ",
"                                . u v w x y z A B C D E F G H g                                 ",
"                                . I J K r L M N O p P Q R S T g                                 ",
"                                . . U V W X Y Z `  ...+.@.p #.g                                 ",
"                                . $.%.&.*.=.-.;.>.,.'.).@.+.!.g                                 ",
"                                  ~.{.].=.^./.@.O @.(._.:.#.<.                                  ",
"                                  $.[.H +.}._./././.@.*.|.1.g                                   ",
"                                    $.2.3.&.4.*.:.5.6.7.1.g                                     ",
"                                      $.8.9.0.a.b.3.c.<.g                                       ",
"                                    d.e.e.g g g g g g e.e.d.                                    ",
"                                    d.e.e.e.e.e.e.e.e.e.e.d.                                    ",
"                                      d.d.e.e.e.e.e.e.d.d.                                      ",
"                                          d.d.d.d.d.d.                                          ",
"                                                                                                "};
